<?xml version="1.0" encoding="UTF-8"?>
<svg version="1.1" xmlns="http://www.w3.org/2000/svg" width="512" height="512">
<path d="M0 0 C168.96 0 337.92 0 512 0 C512 168.96 512 337.92 512 512 C343.04 512 174.08 512 0 512 C0 343.04 0 174.08 0 0 Z " fill="#BBB9B2" transform="translate(0,0)"/>
<path d="M0 0 C1.20011719 -0.03738281 2.40023437 -0.07476562 3.63671875 -0.11328125 C11.13870186 0.7557051 16.14717058 5.63600824 21.5625 10.5 C22.88697556 11.66915396 24.21250246 12.83711795 25.5390625 14.00390625 C26.18262695 14.57125488 26.82619141 15.13860352 27.48925781 15.72314453 C29.92840989 17.84940056 32.42424636 19.89962718 34.9375 21.9375 C42.96459704 28.44691842 50.81654388 35.16207974 58.65112305 41.90112305 C64.19591899 46.66993552 69.79014381 51.35905792 75.46875 55.96875 C78.78936594 58.70552138 82.05293709 61.50356385 85.3125 64.3125 C90.32209276 68.62877974 95.3914364 72.85664669 100.5234375 77.02734375 C107.1550096 82.46077467 113.7203371 87.98819645 120.125 93.6875 C125.9761433 98.83945008 132.09912503 103.67422766 138.16162109 108.57324219 C142.32771955 111.94206005 146.48626966 115.32021471 150.64013672 118.70410156 C153.59801646 121.11302822 156.55983389 123.51501799 159.55078125 125.8828125 C172.50998674 136.22913353 172.50998674 136.22913353 175.3125 143.3125 C175.51303957 145.99574365 175.60627364 148.57556463 175.60302734 151.25878906 C175.60974457 152.05606918 175.61646179 152.8533493 175.62338257 153.67478943 C175.64237173 156.30929815 175.64628758 158.9435521 175.6484375 161.578125 C175.65486611 163.41412459 175.66159452 165.25012316 175.66860962 167.08612061 C175.68058562 170.93618137 175.68429024 174.78615239 175.68310547 178.63623047 C175.68290256 183.55676884 175.71017368 188.4767278 175.74464989 193.39712906 C175.76695078 197.19082248 175.77094199 200.98437734 175.76988602 204.77812958 C175.77223836 206.59132631 175.78104119 208.40452707 175.79655075 210.217659 C175.81627031 212.76172205 175.81034934 215.30454744 175.79833984 217.84863281 C175.80957886 218.58969772 175.82081787 219.33076263 175.83239746 220.09428406 C175.76019487 226.14998383 173.98814414 231.38041775 169.85230064 235.91264725 C168.37621797 237.30217917 166.84500589 238.56152425 165.25 239.8125 C164.67419189 240.28187988 164.09838379 240.75125977 163.50512695 241.23486328 C159.22256847 244.69137746 154.78639677 247.91815005 150.30078125 251.10546875 C145.96076588 254.31083958 141.82030964 257.74722663 137.65283203 261.17211914 C132.64410949 265.27204376 127.53872932 269.22271797 122.375 273.125 C117.25716555 276.99858768 112.33520057 280.94747046 107.60546875 285.29296875 C104.06333746 288.41269938 100.32872072 291.27823878 96.60473633 294.17626953 C92.96694746 297.00843271 89.37004959 299.87935808 85.8125 302.8125 C81.18988812 306.61736914 76.50006812 310.32659505 71.78515625 314.015625 C67.43804975 317.41975829 63.11909884 320.85729635 58.8125 324.3125 C53.99984471 328.17267645 49.16926842 332.00797428 44.3125 335.8125 C39.39793905 339.66424626 34.50210335 343.53841218 29.625 347.4375 C28.99932129 347.93757568 28.37364258 348.43765137 27.72900391 348.95288086 C23.00162078 352.74037822 18.32614874 356.58613026 13.6796875 360.47265625 C9.90009132 363.41026318 6.84452636 365.74114255 1.9375 365.75 C0.87402344 365.77900391 0.87402344 365.77900391 -0.2109375 365.80859375 C-6.8960672 364.46945894 -11.99335182 359.58586559 -16.9375 355.1875 C-18.14980006 354.12098286 -19.36329742 353.05582475 -20.578125 351.9921875 C-21.10438477 351.52538574 -21.63064453 351.05858398 -22.17285156 350.57763672 C-23.8750283 349.10972164 -23.8750283 349.10972164 -26.6875 347.3125 C-26.6875 346.6525 -26.6875 345.9925 -26.6875 345.3125 C-27.25339844 345.2196875 -27.81929687 345.126875 -28.40234375 345.03125 C-31.26443194 344.13103765 -32.94269724 342.72828351 -35.25 340.8125 C-36.12269531 340.09578125 -36.99539062 339.3790625 -37.89453125 338.640625 C-38.81621094 337.87234375 -39.73789063 337.1040625 -40.6875 336.3125 C-42.60222928 334.72682433 -44.51887903 333.14346462 -46.4375 331.5625 C-47.34628906 330.81355469 -48.25507813 330.06460937 -49.19140625 329.29296875 C-51.20690761 327.69381509 -53.20480815 326.24860378 -55.375 324.875 C-56.138125 324.359375 -56.90125 323.84375 -57.6875 323.3125 C-57.6875 322.6525 -57.6875 321.9925 -57.6875 321.3125 C-58.3990625 321.06113281 -59.110625 320.80976563 -59.84375 320.55078125 C-62.97048859 319.18927557 -65.44067098 317.5176848 -68.1875 315.5 C-69.56421875 314.50033203 -69.56421875 314.50033203 -70.96875 313.48046875 C-73.75798315 311.25629576 -76.16627746 308.83372254 -78.6875 306.3125 C-80.95199088 304.37618091 -83.28468006 302.53101945 -85.625 300.6875 C-86.28177734 300.16607422 -86.93855469 299.64464844 -87.61523438 299.10742188 C-92.53473317 295.20672628 -97.47359955 291.33041099 -102.41577148 287.45849609 C-107.32970246 283.60537866 -112.20540306 279.70573595 -117.07543945 275.79736328 C-121.31815223 272.39636684 -125.5894831 269.03431851 -129.875 265.6875 C-134.31334865 262.21838871 -138.68612873 258.68524048 -143 255.0625 C-146.41778381 252.19319343 -149.85079178 249.36266348 -153.375 246.625 C-154.0865625 246.07199219 -154.798125 245.51898438 -155.53125 244.94921875 C-157.01360574 243.82402481 -158.51499004 242.72360292 -160.03125 241.64453125 C-160.8046875 241.08121094 -161.578125 240.51789063 -162.375 239.9375 C-163.05949219 239.45539063 -163.74398437 238.97328125 -164.44921875 238.4765625 C-170.74322203 232.3912609 -173.20292411 227.34946927 -173.44799805 218.61499023 C-173.50288869 215.11584645 -173.4817375 211.62037492 -173.44921875 208.12109375 C-173.45072319 206.24739843 -173.45415817 204.37370377 -173.45942688 202.50001526 C-173.46374523 198.58538278 -173.44701818 194.67157783 -173.41479492 190.75708008 C-173.37498759 185.7545914 -173.38433441 180.75365106 -173.40902996 175.75111294 C-173.42325148 171.88612811 -173.41309638 168.02150139 -173.39551735 164.15654182 C-173.38969298 162.31267211 -173.3909321 160.46876535 -173.39954185 158.62490654 C-173.40758661 156.04265497 -173.38315767 153.46262987 -173.3503418 150.88061523 C-173.35889191 150.12870407 -173.36744202 149.37679291 -173.37625122 148.60209656 C-173.22390532 141.61224743 -170.10730457 136.88509087 -165.3984375 131.87890625 C-164.24214844 130.88697266 -164.24214844 130.88697266 -163.0625 129.875 C-161.75732422 128.74771484 -161.75732422 128.74771484 -160.42578125 127.59765625 C-155.87473535 123.79970782 -151.29896291 120.03689225 -146.6875 116.3125 C-143.5659618 113.76636055 -140.44914504 111.21447499 -137.33349609 108.66113281 C-136.14666277 107.68871108 -134.95944032 106.7167642 -133.77197266 105.74511719 C-125.63178163 99.08128618 -117.5398916 92.37338933 -109.57495117 85.50073242 C-106.15285465 82.55262417 -102.69443528 79.65996786 -99.1875 76.8125 C-95.00666896 73.41634106 -90.89623329 69.94901888 -86.8125 66.4375 C-86.2237207 65.9312207 -85.63494141 65.42494141 -85.02832031 64.90332031 C-84.43889648 64.39639648 -83.84947266 63.88947266 -83.2421875 63.3671875 C-75.30434777 56.54038494 -67.33242575 49.77004553 -59.1328125 43.2578125 C-51.57963729 37.2490565 -44.19608655 31.05737241 -36.88427734 24.75927734 C-32.45731853 20.95313554 -27.96755715 17.23305899 -23.43359375 13.5546875 C-21.41399408 11.90568293 -19.40726409 10.24613379 -17.41015625 8.5703125 C-16.86246582 8.11092285 -16.31477539 7.6515332 -15.75048828 7.17822266 C-14.20614266 5.88067544 -12.66356851 4.58102067 -11.12109375 3.28125 C-7.26364458 0.16061697 -4.94164162 0.0997781 0 0 Z " fill="#091E27" transform="translate(259.6875,51.6875)"/>
<path d="M0 0 C2 0 2 0 4.12109375 2.11328125 C4.56179199 2.5717041 5.00249023 3.03012695 5.45654297 3.50244141 C8.40858257 6.36669495 11.77127777 8.73065661 15.0625 11.1875 C20.36873875 15.18570245 25.57217084 19.24850857 30.625 23.5625 C36.38128808 28.47953736 36.38128808 28.47953736 43 32 C48.10443142 30.88161334 51.66516883 28.25347686 55.625 25 C56.23327637 24.51160645 56.84155273 24.02321289 57.46826172 23.52001953 C62.37831931 19.56103792 67.19761522 15.49369193 72.02734375 11.4375 C85.97596154 0 85.97596154 0 88 0 C88.36418143 5.83340617 88.64367901 11.66517657 88.86230469 17.50585938 C88.95956175 19.97384358 89.07094808 22.44129037 89.19238281 24.90820312 C89.36033875 28.35530006 89.4754236 31.80137403 89.56176758 35.25143433 C89.6036287 36.61590078 89.66151531 37.97997783 89.73608398 39.3430481 C90.30925992 50.14983038 90.30925992 50.14983038 87.26855469 54.44677734 C84.95834632 56.5394302 82.58928591 58.26751427 80 60 C78.49599375 61.17780515 76.99841784 62.3638739 75.5078125 63.55859375 C74.00688134 64.70791729 72.50427046 65.85505052 71 67 C69.47555934 68.17708737 67.95212462 69.35547866 66.4296875 70.53515625 C64.14556026 72.30408154 61.86143845 74.07296473 59.57421875 75.83789062 C58.82527344 76.41861328 58.07632813 76.99933594 57.3046875 77.59765625 C56.21559082 78.44094482 56.21559082 78.44094482 55.10449219 79.30126953 C52.48409787 81.41643237 50.03032295 83.68872839 47.60986328 86.02905273 C46 87 46 87 43.98535156 86.78881836 C40.77522484 85.51337327 38.27477453 83.28891505 35.625 81.125 C34.36861186 80.11833696 33.11209792 79.1118309 31.85546875 78.10546875 C30.89519775 77.33082275 30.89519775 77.33082275 29.91552734 76.54052734 C26.94166522 74.14885388 23.94002787 71.79301139 20.9375 69.4375 C20.36692871 68.98850342 19.79635742 68.53950684 19.20849609 68.0769043 C14.53188505 64.40129152 9.82003484 60.77256391 5.08569336 57.17163086 C2.93682202 55.53006089 0.91489812 53.91489812 -1 52 C-1.24291992 49.47583008 -1.24291992 49.47583008 -1.23046875 46.26953125 C-1.22917969 45.08383545 -1.22789062 43.89813965 -1.2265625 42.67651367 C-1.21367187 41.40138916 -1.20078125 40.12626465 -1.1875 38.8125 C-1.18105469 37.51868408 -1.17460937 36.22486816 -1.16796875 34.8918457 C-1.07649516 23.24825801 -0.64634034 11.62553122 0 0 Z " fill="#F6F8F6" transform="translate(217,313)"/>
<path d="M0 0 C7.123717 4.48530329 13.53494457 9.62312222 20 15 C25.67238459 19.59233535 31.39885954 24.10983857 37.1875 28.5546875 C40.88227607 31.5009529 40.88227607 31.5009529 41.44921875 33.90429688 C43.00310983 48.99741923 43.00310983 48.99741923 39.82666016 53.75878906 C36.64134952 56.82026697 32.82511765 58.8479572 28.94580078 60.90673828 C25.8182992 62.66394683 23.05902522 64.84260037 20.25 67.0625 C19.71745605 67.47185791 19.18491211 67.88121582 18.63623047 68.30297852 C14.22857164 71.71765846 10.14183463 75.4271435 6.12109375 79.28515625 C2.69355654 82.05622224 2.69355654 82.05622224 0 82 C-1.99396722 80.48137481 -3.62687811 79.01845902 -5.375 77.25 C-9.72428543 73.05872308 -14.16821553 69.14472809 -18.9375 65.4375 C-19.51435547 64.97778809 -20.09121094 64.51807617 -20.68554688 64.04443359 C-23.62418384 61.72768282 -26.56845351 59.61157919 -29.77734375 57.68359375 C-38.24764091 52.38613578 -38.24764091 52.38613578 -39.63476562 47.98681641 C-40.4461596 42.84081074 -40.23765635 38.04779677 -39 33 C-36.78125 30.28515625 -36.78125 30.28515625 -34 28 C-32.65035156 26.83210938 -32.65035156 26.83210938 -31.2734375 25.640625 C-30.31695312 24.85171875 -29.36046875 24.0628125 -28.375 23.25 C-27.85429932 22.81953369 -27.33359863 22.38906738 -26.79711914 21.94555664 C-25.20057564 20.62730306 -23.60083703 19.31303491 -22 18 C-21.06285156 17.23042969 -20.12570312 16.46085937 -19.16015625 15.66796875 C-16.44287267 13.44190143 -13.72176238 11.220588 -11 9 C-8.93697765 7.31313756 -6.87476567 5.62528776 -4.8125 3.9375 C-3.20833333 2.625 -1.60416667 1.3125 0 0 Z " fill="#FAFCFB" transform="translate(317,205)"/>
<path d="M0 0 C2.48118411 1.78576572 4.86693498 3.57853579 7.1953125 5.5625 C8.15308594 6.36429688 9.11085937 7.16609375 10.09765625 7.9921875 C10.60796387 8.41983398 11.11827148 8.84748047 11.64404297 9.28808594 C13.89401028 11.1520528 16.17707712 12.97159811 18.47241211 14.77929688 C19.66576411 15.72053226 20.85279584 16.66983491 22.03344727 17.62695312 C24.82858912 19.86523368 27.41347591 21.70775315 30.59375 23.3984375 C34.53660809 25.55738036 37.465589 27.3054947 38.97509766 31.72509766 C40.27303147 37.75252224 40.45810319 43.79794882 38.2578125 49.625 C34.62717364 54.49592668 29.39468385 57.48813428 24.20605469 60.48193359 C21.79888074 61.89426297 19.62667264 63.51210318 17.4453125 65.25 C16.775 65.77207031 16.1046875 66.29414063 15.4140625 66.83203125 C11.72145405 69.90251545 8.23236973 73.19587176 4.73828125 76.48828125 C2.60180583 78.32867819 0.83433699 79.53793489 -1.7421875 80.625 C-2.31324219 80.09132813 -2.88429687 79.55765625 -3.47265625 79.0078125 C-10.25878928 72.77190648 -17.36149124 67.1330158 -24.7421875 61.625 C-25.74121094 60.87605469 -26.74023438 60.12710938 -27.76953125 59.35546875 C-32.62797517 55.76328593 -37.46883265 52.5661586 -42.7421875 49.625 C-42.87758031 46.72759378 -42.97645579 43.83654379 -43.0546875 40.9375 C-43.09658203 40.12087891 -43.13847656 39.30425781 -43.18164062 38.46289062 C-43.26571195 34.30976718 -43.25393744 32.29384078 -40.66796875 28.9140625 C-39.70246094 28.15867188 -38.73695313 27.40328125 -37.7421875 26.625 C-36.63420572 25.67980307 -35.52751322 24.73309347 -34.421875 23.78515625 C-30.23441838 20.3492802 -25.99529528 16.97906974 -21.7421875 13.625 C-20.91058105 12.965 -20.07897461 12.305 -19.22216797 11.625 C-16.68261179 9.62375853 -14.12264063 7.65212087 -11.5546875 5.6875 C-10.75337402 5.05400635 -9.95206055 4.4205127 -9.12646484 3.76782227 C-3.48652045 -0.47678912 -3.48652045 -0.47678912 0 0 Z " fill="#FAFCFB" transform="translate(204.7421875,206.375)"/>
<path d="M0 0 C5.9787868 3.66142757 11.3225106 7.88142714 16.61328125 12.45800781 C22.04827095 17.12241159 27.72156164 21.4498949 33.43945312 25.76000977 C34.13361328 26.28393311 34.82777344 26.80785645 35.54296875 27.34765625 C36.4714563 28.04387085 36.4714563 28.04387085 37.41870117 28.75415039 C40.31387559 31.03515627 40.95150264 31.75117545 41.6875 35.52734375 C42.72608102 46.4662296 42.72608102 46.4662296 39.84277344 50.69873047 C36.63862783 53.92302127 32.84068031 56.30443166 29.00195312 58.70410156 C25.70720282 60.83684969 22.68389932 63.29644252 19.625 65.75 C18.46752616 66.66025575 17.30997669 67.57041535 16.15234375 68.48046875 C9.19687649 73.47702914 9.19687649 73.47702914 4 80 C0.26496231 78.42414494 -2.25279431 76.07781431 -5.1875 73.3125 C-9.13944605 69.64513078 -13.16908112 66.18854191 -17.46484375 62.9296875 C-21.4234974 59.91647501 -25.31479734 56.81768556 -29.21606445 53.73071289 C-31.76263251 51.72360252 -34.30048754 49.79967497 -37 48 C-38.23269531 41.84294373 -39.38480154 33.81442565 -35.88818359 28.22167969 C-32.93175312 24.98324492 -29.39093594 22.56648021 -25.73974609 20.171875 C-23.171574 18.4419808 -20.85650452 16.44244328 -18.5 14.4375 C-12.4352754 9.49255469 -6.22489401 4.74042008 0 0 Z " fill="#FAFCFA" transform="translate(316,112)"/>
<path d="M0 0 C3.1847097 1.45153435 5.72250309 3.23528497 8.4375 5.4375 C9.31664062 6.15035156 10.19578125 6.86320313 11.1015625 7.59765625 C14.74588715 10.61822183 18.34264273 13.69262265 21.94189453 16.76660156 C27.79306987 21.73050142 33.87620527 26.37959187 40 31 C38.62713983 34.2114118 37.19489586 35.9121083 34.40234375 37.98828125 C33.68763916 38.52630371 32.97293457 39.06432617 32.23657227 39.61865234 C31.47787842 40.17762207 30.71918457 40.7365918 29.9375 41.3125 C28.38260038 42.47758154 26.8279107 43.64294332 25.2734375 44.80859375 C24.52932617 45.36272949 23.78521484 45.91686523 23.01855469 46.48779297 C20.67031777 48.24698255 18.36207051 50.05277716 16.0625 51.875 C14.71166197 52.92097964 13.35742182 53.96257876 12 55 C11.13632812 55.66257813 10.27265625 56.32515625 9.3828125 57.0078125 C8.49335938 57.66523438 7.60390625 58.32265625 6.6875 59 C5.88699219 59.598125 5.08648437 60.19625 4.26171875 60.8125 C2 62 2 62 0.11914062 61.75683594 C-2.36562389 60.86942004 -4.06959091 59.67820668 -6.16796875 58.078125 C-6.97137695 57.4704126 -7.77478516 56.8627002 -8.60253906 56.23657227 C-9.45557617 55.58100342 -10.30861328 54.92543457 -11.1875 54.25 C-12.0650293 53.58347412 -12.94255859 52.91694824 -13.84667969 52.23022461 C-16.56933674 50.15979932 -19.28502456 48.08048416 -22 46 C-23.69891199 44.70402485 -25.39811862 43.40843583 -27.09765625 42.11328125 C-31.07074419 39.0828287 -35.03723521 36.0439372 -39 33 C-36.54696967 29.773195 -34.19357721 27.16010574 -30.9375 24.75 C-27.41708122 22.08948679 -23.96996403 19.36665949 -20.5625 16.5625 C-15.4112494 12.32879334 -10.2144031 8.15550554 -5 4 C-3.33310559 2.66695139 -1.6663794 1.33369234 0 0 Z " fill="#B6C6C6" transform="translate(260,157)"/>
<path d="M0 0 C2.9352528 1.77214171 5.41331528 3.76274417 8.00390625 6.01171875 C12.28956772 9.68035228 16.63926767 13.22041455 21.12890625 16.63671875 C26.6542426 20.84673533 32.10110572 25.14557295 37.50390625 29.51171875 C33.04180813 35.37619056 27.7401077 39.57535653 21.890625 43.953125 C18.7274012 46.32127066 15.67134905 48.80213858 12.62890625 51.32421875 C10.92161133 52.72132201 9.21338486 54.11728828 7.50390625 55.51171875 C6.82328125 56.07503906 6.14265625 56.63835937 5.44140625 57.21875 C1.16710659 60.56265254 1.16710659 60.56265254 -1.9375 60.32421875 C-4.80060458 59.41501913 -6.29017316 58.34561653 -8.55859375 56.38671875 C-12.08990754 53.4323821 -15.67145389 50.61717908 -19.3828125 47.890625 C-20.26251709 47.24303223 -21.14222168 46.59543945 -22.04858398 45.92822266 C-23.81591846 44.63163353 -25.58743238 43.3407177 -27.36352539 42.05615234 C-32.47616126 38.2856143 -36.56194958 34.50653904 -40.49609375 29.51171875 C-32.53510446 22.79007761 -24.46581919 16.23803235 -16.22314453 9.86523438 C-14.5009171 8.51549888 -12.8078985 7.13501555 -11.1171875 5.74609375 C-10.05628475 4.89676659 -8.9951002 4.04779127 -7.93359375 3.19921875 C-6.53947266 2.06033203 -6.53947266 2.06033203 -5.1171875 0.8984375 C-2.49609375 -0.48828125 -2.49609375 -0.48828125 0 0 Z " fill="#C5A48B" transform="translate(262.49609375,254.48828125)"/>
<path d="M0 0 C3.15920297 1.52350349 5.76477316 3.6776548 8.46484375 5.8828125 C9.71728915 6.88691681 10.96989802 7.89081725 12.22265625 8.89453125 C12.86235352 9.41063965 13.50205078 9.92674805 14.16113281 10.45849609 C17.19886245 12.89867739 20.27068187 15.29488614 23.33984375 17.6953125 C28.9506971 22.09857856 34.53164411 26.53820035 40.08984375 31.0078125 C36.53197304 35.67077942 33.04457067 38.67361687 28.08984375 41.7578125 C21.69714141 45.86763302 15.67244676 50.28118923 9.69921875 54.9765625 C4.49209826 59.03000959 4.49209826 59.03000959 1.1875 58.84765625 C-2.19720468 57.92998726 -3.83733438 56.84814723 -6.47265625 54.5703125 C-10.34863356 51.31611865 -14.26576443 48.14523093 -18.28515625 45.0703125 C-18.8255957 44.65330078 -19.36603516 44.23628906 -19.92285156 43.80664062 C-22.72117545 41.6535734 -25.5410559 39.53995082 -28.40625 37.4765625 C-28.96328613 37.07171631 -29.52032227 36.66687012 -30.09423828 36.24975586 C-31.63808369 35.13156738 -33.18992013 34.02443617 -34.7421875 32.91796875 C-35.45761719 32.28761719 -36.17304688 31.65726563 -36.91015625 31.0078125 C-36.91015625 30.0178125 -36.91015625 29.0278125 -36.91015625 28.0078125 C-34.9609375 26.1328125 -34.9609375 26.1328125 -32.22265625 24.0078125 C-30.71638672 22.81865234 -30.71638672 22.81865234 -29.1796875 21.60546875 C-28.64424316 21.18410645 -28.10879883 20.76274414 -27.55712891 20.32861328 C-25.34217547 18.5523165 -23.19404019 16.70389208 -21.04345703 14.85058594 C-16.40773119 10.86206009 -11.70993626 6.96764798 -6.84765625 3.2578125 C-5.99042969 2.60296875 -5.13320313 1.948125 -4.25 1.2734375 C-1.91015625 0.0078125 -1.91015625 0.0078125 0 0 Z " fill="#C4A289" transform="translate(373.91015625,159.9921875)"/>
<path d="M0 0 C5.54729903 4.07919601 10.90247217 8.33791531 16.1875 12.75 C22.57618111 18.06319074 29.07254996 23.16991453 35.75390625 28.109375 C36.49511719 28.73328125 37.23632812 29.3571875 38 30 C38 30.66 38 31.32 38 32 C36.159078 33.56264309 34.31470098 35.00606587 32.375 36.4375 C31.17644023 37.33898936 29.97854596 38.24136407 28.78125 39.14453125 C28.15734375 39.6132666 27.5334375 40.08200195 26.890625 40.56494141 C23.84967277 42.87314353 20.86556509 45.25214186 17.875 47.625 C12.02860616 52.24537929 6.07040822 56.67638272 0 61 C-10.91434569 53.79177169 -21.54725156 46.15138196 -32.0625 38.375 C-32.75907715 37.86646484 -33.4556543 37.35792969 -34.17333984 36.83398438 C-35.82025275 35.6053815 -37.41613338 34.30887497 -39 33 C-39 32.34 -39 31.68 -39 31 C-36.63901227 29.11181597 -34.26377839 27.32679944 -31.8125 25.5625 C-25.31379427 20.7949536 -19.10392261 15.81259863 -12.99609375 10.55859375 C-8.74889567 6.93158626 -4.38677681 3.45594832 0 0 Z " fill="#C6A58C" transform="translate(146,159)"/>
<path d="M0 0 C2.65574812 1.0205627 4.39531284 2.57484459 6.55444336 4.42895508 C12.43555537 9.37353373 18.47619162 14.08559628 24.55883789 18.77929688 C26.68809109 20.42615205 28.80908911 22.08316975 30.92944336 23.74145508 C31.54867676 24.21260742 32.16791016 24.68375977 32.8059082 25.16918945 C34.23702832 26.29127485 35.59250345 27.5086647 36.92944336 28.74145508 C36.92944336 31.74145508 36.92944336 31.74145508 35.59106445 33.10083008 C34.96796387 33.55973633 34.34486328 34.01864258 33.70288086 34.49145508 C33.00710938 35.01231689 32.31133789 35.53317871 31.59448242 36.06982422 C30.83876953 36.6214624 30.08305664 37.17310059 29.30444336 37.74145508 C27.74390073 38.90595339 26.18401513 40.07133266 24.62475586 41.23754883 C23.83746094 41.82262207 23.05016602 42.40769531 22.23901367 43.01049805 C18.84362775 45.55524289 15.50815172 48.17292367 12.17944336 50.80395508 C11.62047363 51.24416992 11.06150391 51.68438477 10.4855957 52.13793945 C7.28867037 54.6580865 4.10533012 57.1948644 0.92944336 59.74145508 C-3.42147313 58.30169726 -6.2544355 56.11236378 -9.69555664 53.11645508 C-14.39258945 49.09364097 -19.20977097 45.36424587 -24.24633789 41.76879883 C-27.45003608 39.46904867 -30.60707757 37.11262283 -33.75805664 34.74145508 C-34.77254883 33.97833008 -35.78704102 33.21520508 -36.83227539 32.42895508 C-37.5709082 31.87208008 -38.30954102 31.31520508 -39.07055664 30.74145508 C-35.76445375 26.10609433 -31.84764036 23.07945817 -27.32055664 19.74145508 C-22.63841344 16.24725766 -18.00532695 12.73206378 -13.53540039 8.96801758 C-12.81642578 8.36473633 -12.09745117 7.76145508 -11.35668945 7.13989258 C-9.97888615 5.97558788 -8.60939549 4.8013599 -7.24926758 3.61645508 C-6.62697266 3.0930957 -6.00467773 2.56973633 -5.36352539 2.03051758 C-4.82236084 1.56339355 -4.28119629 1.09626953 -3.72363281 0.61499023 C-2.07055664 -0.25854492 -2.07055664 -0.25854492 0 0 Z " fill="#A3BBBD" transform="translate(261.070556640625,67.258544921875)"/>
<path d="M0 0 C3.91739849 1.65191502 6.89049176 4.30455892 10.0625 7.0625 C11.2260367 8.05920788 12.39010766 9.0552924 13.5546875 10.05078125 C14.42432129 10.79642334 14.42432129 10.79642334 15.31152344 11.55712891 C22.60545916 17.79009017 30.04447145 23.63303822 38 29 C36.43820833 33.41466444 32.94533683 35.73935567 29.375 38.5 C28.71781982 39.0168335 28.06063965 39.53366699 27.38354492 40.06616211 C20.53263656 45.426652 13.58766261 50.67288321 6.57275391 55.81689453 C5.27303456 56.79460952 4.02489933 57.840485 2.79296875 58.90234375 C1 60 1 60 -0.984375 59.8984375 C-3.46117051 58.7944395 -5.18799212 57.39140535 -7.25 55.625 C-11.68720054 51.95691422 -16.28947994 48.70440889 -21.0625 45.5 C-27.12665344 41.41159145 -32.7355419 37.10359966 -38 32 C-33.94738669 27.78149024 -29.59201575 24.0714367 -25.0625 20.375 C-23.95056274 19.46282715 -23.95056274 19.46282715 -22.81616211 18.53222656 C-17.36419067 14.07464718 -11.85631816 9.69197395 -6.29125977 5.37646484 C-4.084328 3.66205445 -1.97854282 1.97854282 0 0 Z " fill="#C6A38A" transform="translate(203,112)"/>
<path d="M0 0 C0.33 0 0.66 0 1 0 C1.22421184 4.26807362 1.38654863 8.53294776 1.49438477 12.80517578 C1.53936928 14.25467677 1.60058725 15.70377563 1.67895508 17.15185547 C2.30769969 29.07745592 2.30769969 29.07745592 -0.72705078 33.5390625 C-3.03690204 35.62038966 -5.3951962 37.305841 -8 39 C-9.50571059 40.17562553 -11.00333079 41.36169548 -12.4921875 42.55859375 C-13.99311866 43.70791729 -15.49572954 44.85505052 -17 46 C-18.52444066 47.17708737 -20.04787538 48.35547866 -21.5703125 49.53515625 C-23.85443974 51.30408154 -26.13856155 53.07296473 -28.42578125 54.83789062 C-29.17472656 55.41861328 -29.92367187 55.99933594 -30.6953125 56.59765625 C-31.42137695 57.15984863 -32.14744141 57.72204102 -32.89550781 58.30126953 C-35.51590213 60.41643237 -37.96967705 62.68872839 -40.39013672 65.02905273 C-42 66 -42 66 -44.01464844 65.78881836 C-47.22477516 64.51337327 -49.72522547 62.28891505 -52.375 60.125 C-53.63138814 59.11833696 -54.88790208 58.1118309 -56.14453125 57.10546875 C-56.78471191 56.58903809 -57.42489258 56.07260742 -58.08447266 55.54052734 C-61.05833478 53.14885388 -64.05997213 50.79301139 -67.0625 48.4375 C-67.63307129 47.98850342 -68.20364258 47.53950684 -68.79150391 47.0769043 C-73.46811495 43.40129152 -78.17996516 39.77256391 -82.91430664 36.17163086 C-85.06317798 34.53006089 -87.08510188 32.91489812 -89 31 C-89.22705078 28.75341797 -89.22705078 28.75341797 -89.1953125 25.9921875 C-89.18886719 25.00605469 -89.18242187 24.01992188 -89.17578125 23.00390625 C-89.15902344 21.97136719 -89.14226562 20.93882812 -89.125 19.875 C-89.11597656 18.83472656 -89.10695312 17.79445313 -89.09765625 16.72265625 C-89.07403747 14.14820908 -89.04110149 11.57421788 -89 9 C-85.16499573 10.4556714 -82.46032106 12.0391679 -79.3125 14.6875 C-75.2791053 17.99725624 -71.16092516 21.04189196 -66.86328125 23.99609375 C-62.51800634 27.03719338 -58.26176896 30.19835705 -54.0012207 33.35668945 C-48.62254714 37.45043619 -48.62254714 37.45043619 -42.109375 38.53515625 C-38.25725102 37.55785813 -35.61869366 34.81753255 -32.66015625 32.26953125 C-30.08944686 30.07631223 -27.45053527 28.13007065 -24.6875 26.1875 C-19.72090926 22.63892736 -15.11384909 18.77218048 -10.59057617 14.68041992 C-7.23421356 11.7306966 -4.32315735 10.12440864 0 9 C0 6.03 0 3.06 0 0 Z " fill="#94A4A7" transform="translate(305,334)"/>
<path d="M0 0 C2.66666667 2 5.33333333 4 8 6 C8.58185059 6.4345752 9.16370117 6.86915039 9.76318359 7.31689453 C13.28835409 9.95316193 16.79954762 12.60573495 20.2890625 15.2890625 C21.00320312 15.83820313 21.71734375 16.38734375 22.453125 16.953125 C23.90972396 18.07439182 25.36544368 19.1968017 26.8203125 20.3203125 C33.54523086 26.23936001 33.54523086 26.23936001 41.5 29 C47.20305069 26.71877972 51.97548343 22.54645924 56.75 18.75 C57.35908203 18.26837402 57.96816406 17.78674805 58.59570312 17.29052734 C60.39923238 15.86297041 62.20002274 14.43203174 64 13 C65.44632813 11.85144531 65.44632813 11.85144531 66.921875 10.6796875 C71.32551133 7.17012279 75.68032249 3.61214413 80 0 C82.36979105 16.65436488 82.36979105 16.65436488 78.57470703 22.01220703 C74.81365112 25.60987033 70.44002221 28.2652109 65.94824219 30.85693359 C63.54106824 32.26926297 61.36886014 33.88710318 59.1875 35.625 C58.18203125 36.40810547 58.18203125 36.40810547 57.15625 37.20703125 C53.46364155 40.27751545 49.97455723 43.57087176 46.48046875 46.86328125 C44.34399333 48.70367819 42.57652449 49.91293489 40 51 C39.14341797 50.19949219 39.14341797 50.19949219 38.26953125 49.3828125 C31.48339822 43.14690648 24.38069626 37.5080158 17 32 C16.00097656 31.25105469 15.00195312 30.50210937 13.97265625 29.73046875 C9.11421233 26.13828593 4.27335485 22.9411586 -1 20 C-1.02689449 17.04160645 -1.04678741 14.08345573 -1.0625 11.125 C-1.07087891 10.28324219 -1.07925781 9.44148437 -1.08789062 8.57421875 C-1.09111328 7.76855469 -1.09433594 6.96289062 -1.09765625 6.1328125 C-1.10289307 5.38918457 -1.10812988 4.64555664 -1.11352539 3.87939453 C-1 2 -1 2 0 0 Z " fill="#94A4A8" transform="translate(163,236)"/>
<path d="M0 0 C0.42700195 0.37729248 0.85400391 0.75458496 1.29394531 1.14331055 C5.29215702 4.62998313 9.3897278 7.7968106 13.75 10.8125 C18.31271445 14.01348356 22.70901092 17.31676179 27 20.875 C32.95933389 26.61694571 32.95933389 26.61694571 40.35546875 28.80078125 C43.45243521 27.86299968 45.36973234 26.52887985 47.9375 24.5625 C52.31314584 21.26893955 56.71974138 18.04135923 61.1875 14.875 C65.655222 11.69576516 70.08880755 8.48215122 74.44921875 5.15625 C75.92919436 4.05279211 77.46398307 3.02401129 79 2 C82.14049154 7.30279719 82.23099281 13.06690095 81 19 C78.29917105 22.56534662 74.73092251 24.59931037 71 27 C68.2840418 28.98336881 65.61439448 31.02686018 62.9375 33.0625 C61.55429513 34.09757096 60.17020101 35.13145481 58.78515625 36.1640625 C52.38716837 40.94792989 46.09880003 45.8394769 40 51 C36.97761703 49.8805989 35.80089979 48.75547899 33.72265625 46.203125 C31.17951914 43.08368058 28.368894 40.77696731 25.125 38.375 C23.98322956 37.51975623 22.84265656 36.66291211 21.703125 35.8046875 C21.10564453 35.35577148 20.50816406 34.90685547 19.89257812 34.44433594 C15.84450765 31.355019 11.89873319 28.13500501 7.93798828 24.93505859 C5.34478959 22.84673045 2.77238898 20.84825932 0 19 C-0.34057617 17.02880859 -0.34057617 17.02880859 -0.29296875 14.6484375 C-0.28330078 13.79765625 -0.27363281 12.946875 -0.26367188 12.0703125 C-0.23853516 11.18085938 -0.21339844 10.29140625 -0.1875 9.375 C-0.17396484 8.4778125 -0.16042969 7.580625 -0.14648438 6.65625 C-0.11106925 4.43690211 -0.06168461 2.21874812 0 0 Z " fill="#5D463C" transform="translate(336,189)"/>
<path d="M0 0 C0.969375 0.845625 1.93875 1.69125 2.9375 2.5625 C7.17567876 6.19522465 11.577145 9.59665056 16 13 C17.41722582 14.10344889 18.83388831 15.20762165 20.25 16.3125 C20.98089844 16.87582031 21.71179688 17.43914062 22.46484375 18.01953125 C24.43517035 19.55875403 26.37888115 21.11957694 28.31640625 22.69921875 C29.4816609 23.63294971 30.64702511 24.56654396 31.8125 25.5 C32.36389648 25.95802002 32.91529297 26.41604004 33.48339844 26.88793945 C36.44535233 29.31921232 36.44535233 29.31921232 40.09375 29.984375 C42.47568289 28.75436048 44.53698357 27.35697931 46.6875 25.75 C47.6465625 25.03457031 48.605625 24.31914062 49.59375 23.58203125 C50.72943855 22.72171296 51.86483022 21.86100268 53 21 C54.01126953 20.23888916 54.01126953 20.23888916 55.04296875 19.46240234 C57.26139247 17.79211249 59.47525898 16.11596865 61.6875 14.4375 C62.38770264 13.90801758 63.08790527 13.37853516 63.80932617 12.83300781 C68.18436781 9.49092641 72.35600502 5.99273494 76.44458008 2.30493164 C78 1 78 1 79 1 C81.20573551 17.65209117 81.20573551 17.65209117 77.83544922 22.76757812 C74.65021881 25.82490016 70.82264823 27.84926774 66.94580078 29.90673828 C63.8182992 31.66394683 61.05902522 33.84260037 58.25 36.0625 C57.71745605 36.47185791 57.18491211 36.88121582 56.63623047 37.30297852 C52.22857164 40.71765846 48.14183463 44.4271435 44.12109375 48.28515625 C40.69355654 51.05622224 40.69355654 51.05622224 38 51 C36.00603278 49.48137481 34.37312189 48.01845902 32.625 46.25 C28.27571457 42.05872308 23.83178447 38.14472809 19.0625 34.4375 C18.48564453 33.97778809 17.90878906 33.51807617 17.31445312 33.04443359 C14.37581616 30.72768282 11.43154649 28.61157919 8.22265625 26.68359375 C-0.36128712 21.30877206 -0.36128712 21.30877206 -1.5703125 16.93847656 C-2.21646411 11.56387974 -2.4566484 4.9132968 0 0 Z " fill="#97A6A7" transform="translate(279,236)"/>
<path d="M0 0 C2.0746988 16.037751 2.0746988 16.037751 -1.26123047 20.80078125 C-4.48757661 23.83043477 -8.21447732 25.92816084 -12.11914062 27.96533203 C-16.26597297 30.24652044 -20.02805214 33.02805214 -23.375 36.375 C-26.96536493 39.96536493 -30.96920788 42.92406098 -35 46 C-36.66998649 47.32917292 -38.33857487 48.66014102 -40 50 C-40.94875 49.175 -41.8975 48.35 -42.875 47.5 C-49.69796526 41.67119934 -56.70143438 36.15610737 -64 30.9375 C-64.59256592 30.50477783 -65.18513184 30.07205566 -65.7956543 29.6262207 C-68.52112651 27.65663678 -71.11243387 25.94251502 -74.1171875 24.40625 C-77.11963898 22.80721068 -78.96402383 21.74214809 -81 19 C-82.17965146 13.40084862 -81.57123583 7.64254059 -81 2 C-80.01 2.33 -79.02 2.66 -78 3 C-77.67 2.34 -77.34 1.68 -77 1 C-76.48953125 1.47308594 -75.9790625 1.94617188 -75.453125 2.43359375 C-70.17243217 7.23677712 -64.67339447 11.58725313 -58.93359375 15.828125 C-56.28272964 17.79068219 -53.66473734 19.78613215 -51.0625 21.8125 C-49.98935547 22.64201172 -49.98935547 22.64201172 -48.89453125 23.48828125 C-47.29546777 24.764235 -45.76372678 26.12388474 -44.25 27.5 C-42.12885778 29.24796269 -42.12885778 29.24796269 -39.6953125 28.82421875 C-36.45180003 27.83236204 -34.33336511 26.3495941 -31.625 24.3125 C-30.66078125 23.58804687 -29.6965625 22.86359375 -28.703125 22.1171875 C-25.97568444 19.98095515 -23.33440807 17.78470999 -20.73828125 15.4921875 C-18.73426509 13.77188599 -16.65850114 12.16931519 -14.5625 10.5625 C-10.75109159 7.63867985 -7.16478993 4.53531196 -3.62890625 1.28515625 C-2 0 -2 0 0 0 Z " fill="#5A453B" transform="translate(301,285)"/>
<path d="M0 0 C4.43858547 2.26861035 8.12320046 4.84742577 11.9375 8.0625 C20.75516285 15.43904898 30.43854837 21.64052287 40 28 C46.2358884 23.34836433 52.45470816 18.67587923 58.625 13.9375 C59.16455322 13.52330811 59.70410645 13.10911621 60.26000977 12.68237305 C64.56357344 9.36508338 68.78653581 5.95530183 72.9765625 2.49609375 C75 1 75 1 78 0 C79.03280988 6.01459873 79.92480423 12.08810128 78 18 C74.14180505 23.1046887 68.46608331 26.37052231 63.0859375 29.68261719 C60.41459706 31.36971375 57.99690387 33.30251522 55.5625 35.3125 C52.23728814 38 52.23728814 38 50 38 C49.67 38.99 49.34 39.98 49 41 C47.2578125 42.82421875 47.2578125 42.82421875 45.125 44.6875 C44.42632812 45.31011719 43.72765625 45.93273437 43.0078125 46.57421875 C41 48 41 48 38 48 C35.90625 46.3125 35.90625 46.3125 33.5 44 C29.16305799 39.97732915 24.68553945 36.46015596 19.86328125 33.04296875 C15.77312432 30.12461667 11.79120998 27.0691819 7.81640625 23.99609375 C5.31732182 22.22489799 3.03250936 21.09694855 0.25 19.875 C-1.62890625 18.78515625 -1.62890625 18.78515625 -3 17 C-3.84479471 11.89206909 -3.88765675 7.10251667 -3 2 C-2.01 1.34 -1.02 0.68 0 0 Z " fill="#5B463B" transform="translate(106,191)"/>
<path d="M0 0 C1.96441931 15.26202697 1.96441931 15.26202697 -2.26171875 21.15234375 C-4.93785079 23.57911095 -7.89563635 25.59117178 -10.90673828 27.578125 C-14.03993109 29.70638659 -16.98711869 32.05646596 -19.96142578 34.39941406 C-22.20593674 36.16612154 -24.47064425 37.90377627 -26.73828125 39.640625 C-30.4368892 42.49783141 -33.91901444 45.54483439 -37.36010742 48.70605469 C-39 50 -39 50 -41 50 C-41 49.34 -41 48.68 -41 48 C-42.0209375 47.7215625 -42.0209375 47.7215625 -43.0625 47.4375 C-45.83556332 46.08046902 -47.00153226 45.11970114 -49.0625 42.9375 C-53.84539561 37.93720005 -59.43129967 34.07333851 -65 30 C-66.12530146 29.15577906 -67.2489942 28.30940965 -68.37109375 27.4609375 C-68.91612549 27.0489209 -69.46115723 26.6369043 -70.02270508 26.21240234 C-70.5514624 25.81230957 -71.08021973 25.4122168 -71.625 25 C-75.1662785 22.26316043 -75.1662785 22.26316043 -79 20 C-79 14.06 -79 8.12 -79 2 C-74.76067529 3.05983118 -73.46454866 4.06975723 -70.25 6.875 C-64.98485573 11.31215787 -59.48172878 15.21029437 -53.74707031 19.01708984 C-49.71038437 21.72270033 -46.13178846 24.57318954 -42.64941406 27.97192383 C-41.03094283 29.21756772 -41.03094283 29.21756772 -38.95581055 28.77001953 C-36.11051398 27.64980166 -33.98011702 25.92901844 -31.5625 24.0625 C-31.04244385 23.66353516 -30.5223877 23.26457031 -29.98657227 22.85351562 C-28.8825124 22.00548159 -27.78058914 21.15465968 -26.68066406 20.30126953 C-25.03078805 19.02383793 -23.37246519 17.75832041 -21.7109375 16.49609375 C-15.37265295 11.66948582 -9.1622179 6.72508952 -3.046875 1.6171875 C-1 0 -1 0 0 0 Z " fill="#5A443B" transform="translate(242,142)"/>
<path d="M0 0 C0.73790771 0.55723755 0.73790771 0.55723755 1.49072266 1.12573242 C4.87537748 3.67410721 8.26748257 6.20725799 11.7109375 8.67578125 C18.25962584 13.37943406 24.53868221 18.10282588 30.35400391 23.71630859 C32.95064932 26.09061188 32.95064932 26.09061188 36.06860352 27.83129883 C40.95062381 30.80197095 44.44808926 32.93661118 45.97143555 38.63183594 C46.32491652 42.7951347 46.05185204 46.90444063 45.75 51.0625 C45.68969889 52.51475173 45.6349647 53.96724584 45.5859375 55.41992188 C45.45473682 58.95171562 45.24840211 62.47428233 45 66 C40.93155302 64.06711491 37.50280938 61.4746082 33.9375 58.75 C32.51226381 57.67115455 31.08645709 56.59306251 29.66015625 55.515625 C28.90750488 54.94650391 28.15485352 54.37738281 27.37939453 53.79101562 C23.23045732 50.66803149 19.05396708 47.58262433 14.875 44.5 C14.082146 43.9131543 13.28929199 43.32630859 12.47241211 42.72167969 C11.71581299 42.16383789 10.95921387 41.60599609 10.1796875 41.03125 C9.51694824 40.54205078 8.85420898 40.05285156 8.17138672 39.54882812 C5.8985915 37.85451447 5.8985915 37.85451447 2.77539062 36.29980469 C0 34 0 34 -0.68115234 30.42480469 C-0.68020788 29.00680654 -0.64661261 27.58857475 -0.5859375 26.171875 C-0.57744781 25.42286926 -0.56895813 24.67386353 -0.56021118 23.90216064 C-0.5266993 21.51662531 -0.45143886 19.13450788 -0.375 16.75 C-0.34489687 15.13025727 -0.31752165 13.51046137 -0.29296875 11.890625 C-0.22691723 7.92577225 -0.12342313 3.96346491 0 0 Z " fill="#B9957B" transform="translate(102,218)"/>
<path d="M0 0 C0.33 0 0.66 0 1 0 C1.41544921 5.06350915 1.65243569 10.11024059 1.54296875 15.19140625 C1.5277417 16.02615479 1.51251465 16.86090332 1.49682617 17.72094727 C0.85637353 20.65884673 -0.3072937 21.7047652 -2.625 23.5625 C-3.44484375 23.92859375 -4.2646875 24.2946875 -5.109375 24.671875 C-8.83332832 26.38288058 -11.70908245 28.73981448 -14.875 31.3125 C-16.08048677 32.26983656 -17.28621526 33.22686882 -18.4921875 34.18359375 C-25.39237007 39.71091569 -32.22318447 45.32212752 -39 51 C-43.03901718 48.06741572 -46.97128859 45.08587421 -50.6875 41.75 C-54.11676425 38.70400646 -57.68137722 35.86186574 -61.3125 33.0625 C-62.13886963 32.41039551 -62.13886963 32.41039551 -62.98193359 31.74511719 C-65.68957507 29.63680493 -68.25146139 27.86319303 -71.28125 26.21484375 C-74.56916205 24.35480072 -76.70750142 23.02070401 -79 20 C-80.30680324 14.07949354 -79.63161011 7.97158653 -79 2 C-74.65482012 4.38266902 -70.84081539 6.76669283 -67.0625 10 C-60.45533942 15.52432038 -53.56927135 20.65559947 -46.64404297 25.77270508 C-45.30142947 26.77497981 -43.9812045 27.80718639 -42.66796875 28.84765625 C-41.02910692 30.20385317 -41.02910692 30.20385317 -38.75 30.0625 C-34.57318914 28.44873217 -31.47556153 25.78808782 -28 23 C-26.35119249 21.69781382 -24.69956794 20.39925777 -23.04760742 19.10107422 C-21.84465922 18.15511876 -20.64300656 17.20751356 -19.44262695 16.25830078 C-14.48679239 12.34821721 -9.43307033 8.58768751 -4.328125 4.875 C-1.80834349 3.03761324 -1.80834349 3.03761324 0 0 Z " fill="#4C656F" transform="translate(300,188)"/>
<path d="M0 0 C0.27335034 4.71347738 0.47209484 9.42229439 0.60424805 14.1418457 C0.65934644 15.74390012 0.73426105 17.34540664 0.82983398 18.94555664 C1.13268365 24.14906453 1.20487957 28.90465391 0 34 C-3.20373648 37.47020534 -6.72560232 39.11287283 -11 41 C-12.86967974 42.43294899 -14.7128982 43.90279732 -16.5 45.4375 C-21.01698246 49.23176527 -25.68083904 52.71037365 -30.48046875 56.13671875 C-32.7767853 57.83492494 -34.92398291 59.60942692 -37.0625 61.5 C-40 64 -40 64 -42 64 C-42 64.66 -42 65.32 -42 66 C-42.66 66 -43.32 66 -44 66 C-46.66714362 39.15477705 -46.66714362 39.15477705 -42.62158203 31.3359375 C-38.96706021 27.03863025 -34.35169227 24.26510727 -29.49023438 21.49511719 C-25.15419922 18.89179569 -21.31364841 15.65899547 -17.375 12.5 C-15.92618584 11.38319911 -14.47573682 10.26851498 -13.0234375 9.15625 C-9.7034431 6.59433953 -6.54206032 3.89647572 -3.43212891 1.08398438 C-2 0 -2 0 0 0 Z " fill="#88A1A9" transform="translate(419,219)"/>
<path d="M0 0 C2 1 4 2 6 3 C6 3.66 6 4.32 6 5 C6.55171875 5.25136719 7.1034375 5.50273437 7.671875 5.76171875 C18.67069132 11.61176032 28.40031091 21.11802177 38 29 C42.91671133 27.41793682 46.5296689 24.55009747 50.5625 21.4375 C51.98820328 20.35146014 53.41398528 19.2655236 54.83984375 18.1796875 C55.54222168 17.64182617 56.24459961 17.10396484 56.96826172 16.54980469 C59.83565174 14.36256702 62.73080167 12.2141318 65.625 10.0625 C69.51704065 7.14612077 73.31486265 4.17331272 77 1 C79.43623679 3.43623679 78.9102749 8.89223543 79.00244141 12.21923828 C78.8376312 16.4040223 78.38294555 19.15871089 75.37109375 22.1875 C72.42590112 24.62368418 69.23974988 26.68008603 66.00195312 28.70410156 C62.70720282 30.83684969 59.68389932 33.29644252 56.625 35.75 C55.46752616 36.66025575 54.30997669 37.57041535 53.15234375 38.48046875 C46.19687649 43.47702914 46.19687649 43.47702914 41 50 C37.26496231 48.42414494 34.74720569 46.07781431 31.8125 43.3125 C27.86055395 39.64513078 23.83091888 36.18854191 19.53515625 32.9296875 C15.5765026 29.91647501 11.68520266 26.81768556 7.78393555 23.73071289 C5.23736749 21.72360252 2.69951246 19.79967497 0 18 C-0.34057617 16.12060547 -0.34057617 16.12060547 -0.29296875 13.8671875 C-0.28330078 13.06152344 -0.27363281 12.25585938 -0.26367188 11.42578125 C-0.23853516 10.58402344 -0.21339844 9.74226562 -0.1875 8.875 C-0.17396484 8.02550781 -0.16042969 7.17601562 -0.14648438 6.30078125 C-0.11108219 4.20025163 -0.05727401 2.10004707 0 0 Z " fill="#9DABAE" transform="translate(279,142)"/>
<path d="M0 0 C0.44344416 4.2468601 0.80177114 8.49048814 1.08642578 12.75024414 C1.1944096 14.19416513 1.32453255 15.6366217 1.47802734 17.07641602 C1.98777016 21.94597901 2.1547404 26.21111006 1 31 C-2.4875342 34.98575337 -6.44915113 37.37197 -11 40 C-12.77324364 41.34489107 -14.52776952 42.71537339 -16.25 44.125 C-17.0646875 44.77984375 -17.879375 45.4346875 -18.71875 46.109375 C-20.77950699 47.81726264 -22.76768972 49.57748136 -24.75 51.375 C-28.45593958 54.6683195 -32.40911219 57.55674609 -36.4375 60.4375 C-37.37964355 61.11208252 -37.37964355 61.11208252 -38.34082031 61.80029297 C-42.86784082 65 -42.86784082 65 -44 65 C-46.07396154 35.73587089 -46.07396154 35.73587089 -41.8203125 30.1015625 C-38.68604063 27.59913324 -35.56294638 25.83438824 -32 24 C-29.6058852 22.26495822 -27.34416559 20.37924417 -25.0625 18.5 C-23.89252661 17.57924786 -22.71933848 16.66256589 -21.54296875 15.75 C-20.66970947 15.07130859 -20.66970947 15.07130859 -19.77880859 14.37890625 C-14.86494351 10.56975034 -9.94162949 6.77309602 -5 3 C-4.23945313 2.4121875 -3.47890625 1.824375 -2.6953125 1.21875 C-1 0 -1 0 0 0 Z " fill="#859FA5" transform="translate(362,266)"/>
<path d="M0 0 C11.17052182 7.11347309 21.21626821 15.76739549 31.13769531 24.51416016 C33.05565632 26.1085831 33.05565632 26.1085831 35.58886719 27.57568359 C39.89971176 30.39714595 42.56835908 32.33321286 43.89379883 37.45141602 C44.20780345 41.50499962 44.23555642 45.44181709 44.125 49.5 C44.12305496 50.90885523 44.12562121 52.31772428 44.1328125 53.7265625 C44.1328125 57.15379839 44.08724051 60.57405896 44 64 C40.69606319 62.78783328 38.04714642 61.48958498 35.28515625 59.3125 C34.60582031 58.78342041 33.92648438 58.25434082 33.2265625 57.70922852 C32.51242188 57.14518311 31.79828125 56.5811377 31.0625 56 C29.54430581 54.81989245 28.02475449 53.64152895 26.50390625 52.46484375 C25.36912842 51.58675049 25.36912842 51.58675049 24.21142578 50.69091797 C19.99337095 47.46567533 15.66945005 44.39472002 11.34375 41.31640625 C10.82731934 40.94040283 10.31088867 40.56439941 9.77880859 40.17700195 C7.94625749 38.91448525 7.94625749 38.91448525 5.61572266 37.79760742 C3.01497991 36.38931929 1.04218592 35.1465972 -1 33 C-2.13158084 29.0157355 -1.90111246 25.29153516 -1.625 21.1875 C-1.59277344 20.14529297 -1.56054688 19.10308594 -1.52734375 18.02929688 C-1.30721137 11.98324728 -0.74012527 6.0025414 0 0 Z " fill="#B49279" transform="translate(160,265)"/>
<path d="M0 0 C0.99 0.495 0.99 0.495 2 1 C2.70158729 6.65817158 3.36066167 12.39585045 2 18 C-0.80019116 21.56483846 -4.17988447 23.49329489 -8.06103516 25.76708984 C-11.84086957 28.17053529 -15.19979869 31.12442401 -18.625 34 C-19.34993652 34.59981689 -20.07487305 35.19963379 -20.82177734 35.81762695 C-26.34865351 40.40160927 -31.73795413 45.11289106 -37 50 C-42.53705315 45.98292222 -47.78820618 41.69250514 -52.9909668 37.25634766 C-58.26557498 32.76058685 -63.61244528 28.36012041 -69 24 C-69.86625 23.27683594 -70.7325 22.55367187 -71.625 21.80859375 C-73.94730115 19.83802686 -73.94730115 19.83802686 -77 19 C-77 13.06 -77 7.12 -77 1 C-69.95614712 5.5367188 -63.32997772 10.50887492 -56.72900391 15.65478516 C-53.80770384 17.92764075 -50.87206428 20.18181498 -47.9375 22.4375 C-46.89464844 23.24058594 -45.85179687 24.04367188 -44.77734375 24.87109375 C-42.52837485 26.59498693 -40.27146204 28.30593598 -38 30 C-34.6211647 28.45987972 -31.83119558 26.49030777 -28.875 24.25 C-27.83085937 23.45980469 -26.78671875 22.66960937 -25.7109375 21.85546875 C-22.90978253 19.70998579 -20.12866433 17.53979094 -17.3515625 15.36328125 C-16.54992676 14.73583008 -15.74829102 14.10837891 -14.92236328 13.46191406 C-13.32684839 12.21084514 -11.73399959 10.95636745 -10.14404297 9.69824219 C-9.40557129 9.11848633 -8.66709961 8.53873047 -7.90625 7.94140625 C-7.24947266 7.42263916 -6.59269531 6.90387207 -5.91601562 6.36938477 C-4.01457111 5.01041404 -2.11625224 3.98368065 0 3 C0 2.01 0 1.02 0 0 Z " fill="#415B63" transform="translate(298,96)"/>
<path d="M0 0 C6.01201522 2.60059211 10.858313 6.55467544 16 10.5625 C23.33162274 16.21795879 30.71496924 21.7507844 38.28515625 27.08203125 C39.18105469 27.71496094 40.07695312 28.34789062 41 29 C41.70793701 29.40669922 42.41587402 29.81339844 43.14526367 30.23242188 C45 32 45 32 45.45410156 34.8190918 C45.4331543 35.93453369 45.41220703 37.04997559 45.390625 38.19921875 C45.37773437 39.40771484 45.36484375 40.61621094 45.3515625 41.86132812 C45.31804687 43.12396484 45.28453125 44.38660156 45.25 45.6875 C45.23195312 46.96173828 45.21390625 48.23597656 45.1953125 49.54882812 C45.14810441 52.69996841 45.08226384 55.8496114 45 59 C44.56719727 58.62198242 44.13439453 58.24396484 43.68847656 57.85449219 C39.81325813 54.49709219 35.85640707 51.3246465 31.75 48.25 C27.40082737 44.96095782 23.30683581 41.53488103 19.3125 37.8125 C15.16470437 33.95577775 10.89312303 30.6252077 6.19140625 27.47265625 C5.46824219 26.98667969 4.74507813 26.50070312 4 26 C3.30285889 25.58443848 2.60571777 25.16887695 1.88745117 24.74072266 C0 23 0 23 -0.45410156 20.5480957 C-0.4331543 19.60023193 -0.41220703 18.65236816 -0.390625 17.67578125 C-0.37773438 16.64775391 -0.36484375 15.61972656 -0.3515625 14.56054688 C-0.31804687 13.48869141 -0.28453125 12.41683594 -0.25 11.3125 C-0.23195313 10.22904297 -0.21390625 9.14558594 -0.1953125 8.02929688 C-0.14813508 5.35197854 -0.08232249 2.67643091 0 0 Z " fill="#694D3F" transform="translate(102,252)"/>
<path d="M0 0 C5.00569943 2.31990425 9.34484565 5.17989048 13.8125 8.375 C14.5437207 8.89376709 15.27494141 9.41253418 16.02832031 9.94702148 C22.25458462 14.39615636 28.34402721 19.01640581 34.37817383 23.72216797 C35.37433716 24.49584717 35.37433716 24.49584717 36.390625 25.28515625 C36.96844727 25.73769775 37.54626953 26.19023926 38.14160156 26.65649414 C40.33458392 28.24188325 42.67959337 29.60775602 45 31 C44.67 39.58 44.34 48.16 44 57 C35.01538462 50.26153846 35.01538462 50.26153846 31.125 47.125 C29.86042969 46.10792969 29.86042969 46.10792969 28.5703125 45.0703125 C27.72210938 44.38710938 26.87390625 43.70390625 26 43 C24.33383985 41.66603377 22.66717642 40.33269589 21 39 C20.18015625 38.34386719 19.3603125 37.68773437 18.515625 37.01171875 C16.7978844 35.63805973 15.07908685 34.26572162 13.359375 32.89453125 C12.49828125 32.20746094 11.6371875 31.52039063 10.75 30.8125 C9.59757813 29.89404297 9.59757813 29.89404297 8.421875 28.95703125 C7.62265625 28.31121094 6.8234375 27.66539062 6 27 C4.91976562 26.3296875 3.83953125 25.659375 2.7265625 24.96875 C0.60275486 23.19337955 0.05682482 22.2933523 -0.4765625 19.53979492 C-0.59102357 16.5671285 -0.52326414 13.65848523 -0.375 10.6875 C-0.34792969 9.66076172 -0.32085937 8.63402344 -0.29296875 7.57617188 C-0.22243254 5.04862424 -0.12393429 2.52539957 0 0 Z " fill="#674C3E" transform="translate(159,298)"/>
<path d="M0 0 C2.03567595 19.11126304 2.03567595 19.11126304 -1.03417969 24.97558594 C-3.83640705 28.29514758 -7.38909108 30.52163367 -11.07080078 32.76660156 C-14.43412858 34.91688403 -17.42746754 37.52268892 -20.5 40.0625 C-21.75372108 41.06339977 -23.01022459 42.06082453 -24.26953125 43.0546875 C-26.1370316 44.5285935 -28.003872 46.00308422 -29.86474609 47.48535156 C-31.63359006 48.89308206 -33.40933597 50.29157003 -35.1875 51.6875 C-36.21230469 52.49574219 -37.23710937 53.30398438 -38.29296875 54.13671875 C-40.75952587 55.83447884 -42.16314583 56.40569437 -45 57 C-47.53864128 37.79420234 -47.53864128 37.79420234 -43.55859375 31.84570312 C-39.83015442 28.20038187 -35.44783373 25.62705102 -30.90966797 23.10791016 C-28.52560383 21.72477502 -26.56858318 20.07051059 -24.5625 18.1875 C-4.44202899 0 -4.44202899 0 0 0 Z " fill="#48616A" transform="translate(363,297)"/>
<path d="M0 0 C2.51911882 17.98989946 2.51911882 17.98989946 -1.34472656 24.140625 C-4.9810976 27.9930792 -9.34574426 30.80479024 -13.81933594 33.59716797 C-17.15729849 35.74449587 -20.17631892 38.24648633 -23.25 40.75 C-25.49125354 42.51130446 -27.74539328 44.25583309 -30 46 C-30.57363281 46.44456543 -31.14726562 46.88913086 -31.73828125 47.34716797 C-33.40408638 48.63365461 -35.07565856 49.91215057 -36.75 51.1875 C-37.71421875 51.92355469 -38.6784375 52.65960938 -39.671875 53.41796875 C-42 55 -42 55 -44 55 C-44 47.41 -44 39.82 -44 32 C-43.34 32 -42.68 32 -42 32 C-42 31.34 -42 30.68 -42 30 C-39.93289831 28.20750598 -37.85957481 26.53198039 -35.6875 24.875 C-34.72952515 24.13358765 -34.72952515 24.13358765 -33.75219727 23.37719727 C-29.16932765 19.84720318 -24.51311581 16.42626015 -19.8125 13.0546875 C-15.89439952 10.19229743 -12.06298356 7.22142145 -8.23803711 4.23608398 C-2.78660745 0 -2.78660745 0 0 0 Z " fill="#47616A" transform="translate(419,253)"/>
<path d="M0 0 C1.010625 0.763125 2.02125 1.52625 3.0625 2.3125 C5.85873911 4.41837102 8.67533485 6.49089774 11.51953125 8.53125 C18.18182472 13.32731408 24.53891657 18.15514785 30.5 23.82421875 C32.88426655 25.89927573 35.37516231 27.59346937 38.01586914 29.32202148 C40.60628613 31.05060557 42.84060344 32.74704207 45 35 C45.70253649 38.66139457 45.19879058 41.49865434 44 45 C43.01 44.67 42.02 44.34 41 44 C41 43.34 41 42.68 41 42 C40.14148438 41.76796875 39.28296875 41.5359375 38.3984375 41.296875 C34.58948355 39.84334315 31.75340177 37.78711181 28.625 35.25 C27.48591846 34.34995485 26.34659591 33.45021463 25.20703125 32.55078125 C24.65998535 32.11459473 24.11293945 31.6784082 23.54931641 31.22900391 C21.49465052 29.5991287 19.40915765 28.012868 17.3125 26.4375 C16.40951172 25.75494141 16.40951172 25.75494141 15.48828125 25.05859375 C13.9685673 23.92011801 13.9685673 23.92011801 12 23 C12 22.34 12 21.68 12 21 C9.9746155 19.95993769 7.99505415 18.99815884 5.859375 18.203125 C3.30333168 17.04817209 1.80764038 16.17347236 0 14 C-0.70907394 9.2674686 -0.46280587 4.75018801 0 0 Z " fill="#D0B59E" transform="translate(102,218)"/>
<path d="M0 0 C0.89149863 4.91031784 1.15440406 9.11793878 0 14 C-3.60915512 17.80019767 -7.63796193 20.28213502 -12.14892578 22.89599609 C-14.81504124 24.48610083 -17.26865401 26.3256005 -19.75 28.1875 C-38.70723684 42 -38.70723684 42 -42 42 C-42.84253122 38.93031596 -43.29612734 36.18288711 -43 33 C-41.07513314 30.11616309 -38.4826176 28.31898117 -35.6875 26.3125 C-34.92655029 25.72799072 -34.16560059 25.14348145 -33.3815918 24.54125977 C-31.76758211 23.30490229 -30.14362216 22.08144294 -28.51074219 20.87011719 C-25.18323902 18.39163856 -21.92243053 15.8321858 -18.6574707 13.2722168 C-16.42198029 11.52315793 -14.17531173 9.78953449 -11.92578125 8.05859375 C-9.42527223 6.13331637 -6.99618608 4.15727332 -4.60546875 2.09765625 C-2 0 -2 0 0 0 Z " fill="#A5BEC1" transform="translate(418,220)"/>
<path d="M0 0 C1.37094499 12.20310296 1.37094499 12.20310296 -1.8984375 16.48828125 C-7.67119565 21 -7.67119565 21 -12 21 C-12 21.66 -12 22.32 -12 23 C-13.98 23.66 -15.96 24.32 -18 25 C-18 25.66 -18 26.32 -18 27 C-19.35766602 28.1574707 -19.35766602 28.1574707 -21.25390625 29.42578125 C-21.94419922 29.89306641 -22.63449219 30.36035156 -23.34570312 30.84179688 C-24.07724609 31.32712891 -24.80878906 31.81246094 -25.5625 32.3125 C-26.98088482 33.26630864 -28.39885667 34.22073172 -29.81640625 35.17578125 C-30.5139502 35.64193848 -31.21149414 36.1080957 -31.93017578 36.58837891 C-33.9545087 37.96897491 -35.92865683 39.4037317 -37.90234375 40.85546875 C-41 43 -41 43 -43 43 C-44.03688845 34.55826173 -44.03688845 34.55826173 -41.79003906 31.18164062 C-39.98713294 29.53915808 -38.1278017 28.14194718 -36.125 26.75 C-35.41408203 26.21624756 -34.70316406 25.68249512 -33.97070312 25.13256836 C-32.45205029 23.99341352 -30.92402402 22.86666629 -29.38769531 21.75146484 C-26.14296981 19.37133593 -22.98937207 16.8822634 -19.82763672 14.39355469 C-16.23817637 11.569876 -12.62527106 8.77750753 -9 6 C-8.24976563 5.42491699 -7.49953125 4.84983398 -6.7265625 4.25732422 C-6.00210938 3.70705566 -5.27765625 3.15678711 -4.53125 2.58984375 C-3.54995117 1.84335571 -3.54995117 1.84335571 -2.54882812 1.08178711 C-1 0 -1 0 0 0 Z " fill="#A1B9BE" transform="translate(362,266)"/>
<path d="M0 0 C8.32143173 5.23941998 15.74824837 11.39470201 23.23828125 17.7421875 C23.78621338 18.20625 24.33414551 18.6703125 24.89868164 19.1484375 C26.00374148 20.08761675 27.10582633 21.03030825 28.20483398 21.9765625 C31.62339486 24.90514165 35.157527 27.55468046 38.8125 30.1875 C42.81336722 33.30933985 42.81336722 33.30933985 43.61328125 36.26953125 C43.625 38.5 43.625 38.5 43 42 C39.39380316 41.43917598 36.85420839 40.54264046 33.79296875 38.56640625 C33.04208984 38.08236328 32.29121094 37.59832031 31.51757812 37.09960938 C30.74865234 36.59236328 29.97972656 36.08511719 29.1875 35.5625 C28.39923828 35.05912109 27.61097656 34.55574219 26.79882812 34.03710938 C22.48870711 31.22713438 22.48870711 31.22713438 21 30 C21 29.34 21 28.68 21 28 C20.48566406 27.773125 19.97132813 27.54625 19.44140625 27.3125 C16.06008525 25.49470183 13.0391021 23.25453943 9.9375 21 C5.01255555 17.43761598 5.01255555 17.43761598 0 14 C-0.29296875 10.7421875 -0.29296875 10.7421875 -0.1875 6.875 C-0.16042969 5.59367187 -0.13335937 4.31234375 -0.10546875 2.9921875 C-0.07066406 2.00476563 -0.03585938 1.01734375 0 0 Z " fill="#CCB098" transform="translate(160,265)"/>
<path d="M0 0 C2.02672034 1.30289165 4.01480961 2.63629939 6 4 C6.57234375 4.36222656 7.1446875 4.72445313 7.734375 5.09765625 C10.14015 6.78742679 11.84407631 8.12780185 12.375 11.09765625 C12.375 13.3125 12.375 13.3125 12 17 C7.65136348 16.43555175 4.82172345 14.84572036 1.1875 12.4375 C0.21167969 11.79683594 -0.76414063 11.15617187 -1.76953125 10.49609375 C-2.50558594 10.00238281 -3.24164063 9.50867188 -4 9 C-3.67 8.34 -3.34 7.68 -3 7 C-1.02 7.495 -1.02 7.495 1 8 C0.67 5.36 0.34 2.72 0 0 Z " fill="#C5A992" transform="translate(191,290)"/>
<path d="M0 0 C0 0.99 0 1.98 0 3 C-0.66 3 -1.32 3 -2 3 C-2.33 3.99 -2.66 4.98 -3 6 C-3.66 6 -4.32 6 -5 6 C-5.2475 6.639375 -5.495 7.27875 -5.75 7.9375 C-6.1625 8.618125 -6.575 9.29875 -7 10 C-7.66 10.144375 -8.32 10.28875 -9 10.4375 C-11.22973052 10.83411141 -11.22973052 10.83411141 -12.5 13.1875 C-13.30890153 16.13201163 -13.30890153 16.13201163 -11.5 19.0625 C-8.81322132 22.21946495 -6.5354076 23.91089551 -3 26 C-3.33 26.66 -3.66 27.32 -4 28 C-9.19210472 24.19695186 -14.15609762 20.23841458 -19 16 C-15.16771102 11.99185072 -11.07477678 8.57171247 -6.6875 5.1875 C-6.04232422 4.68541016 -5.39714844 4.18332031 -4.73242188 3.66601562 C-3.15732875 2.44094319 -1.57899684 1.2200368 0 0 Z " fill="#BCA496" transform="translate(184,128)"/>
<path d="M0 0 C0.5775 0.22300781 1.155 0.44601562 1.75 0.67578125 C-0.28731626 2.93946598 -1.70943536 4.49085124 -4.625 5.48828125 C-9.45957447 7.67535065 -12.28242092 12.36670368 -15.375 16.55078125 C-17.35949261 18.79987288 -18.31506494 19.36132392 -21.25 19.67578125 C-21.91 18.68578125 -22.57 17.69578125 -23.25 16.67578125 C-19.79083871 13.76680805 -16.32050466 10.87224769 -12.83642578 7.99316406 C-11.41287201 6.81103169 -10.00059702 5.61534818 -8.58984375 4.41796875 C-7.81769531 3.78117187 -7.04554688 3.144375 -6.25 2.48828125 C-5.569375 1.91722656 -4.88875 1.34617187 -4.1875 0.7578125 C-2.25 -0.32421875 -2.25 -0.32421875 0 0 Z " fill="#C3AD9E" transform="translate(245.25,267.32421875)"/>
<path d="M0 0 C0.66 0 1.32 0 2 0 C3.05893398 14.79145879 3.05893398 14.79145879 0.72265625 19.6640625 C-1.05788871 21.69089599 -2.88589586 23.32616896 -5 25 C-5.71800781 25.66773438 -6.43601563 26.33546875 -7.17578125 27.0234375 C-12.555583 32 -12.555583 32 -15 32 C-13.57904457 28.6673468 -11.8834126 26.76393478 -9.125 24.4375 C-8.44695312 23.85871094 -7.76890625 23.27992188 -7.0703125 22.68359375 C-5 21 -5 21 -2.7890625 19.859375 C0.19804104 16.75487437 -0.32053712 12.95815905 -0.25 8.8125 C-0.22035156 7.96751953 -0.19070312 7.12253906 -0.16015625 6.25195312 C-0.0895301 4.16848178 -0.04249205 2.08423494 0 0 Z " fill="#11171D" transform="translate(242,142)"/>
<path d="M0 0 C0.66 0 1.32 0 2 0 C2.02497151 4.92553348 2.04298678 9.851029 2.05493164 14.77661133 C2.05991846 16.44751631 2.06671031 18.11841702 2.07543945 19.78930664 C2.12185731 28.91178123 2.12303748 37.92833871 1 47 C0.67 47 0.34 47 0 47 C-0.16783252 40.46736699 -0.32779476 33.93457595 -0.48217773 27.40161133 C-0.53568392 25.17728264 -0.59101963 22.9529972 -0.64819336 20.72875977 C-0.7298646 17.53932018 -0.80504388 14.34978501 -0.87890625 11.16015625 C-0.91945885 9.65860741 -0.91945885 9.65860741 -0.96083069 8.12672424 C-0.98092697 7.20584518 -1.00102325 6.28496613 -1.02172852 5.33618164 C-1.04171402 4.52121719 -1.06169952 3.70625275 -1.08229065 2.86659241 C-1 1 -1 1 0 0 Z " fill="#C3C6C2" transform="translate(434,282)"/>
<path d="M0 0 C0.33 0 0.66 0 1 0 C1 9.24 1 18.48 1 28 C-2.76687864 26.11656068 -3.79421646 25.30867531 -6 22 C-5.34 21.34 -4.68 20.68 -4 20 C-4 20.99 -4 21.98 -4 23 C-3.34 22.67 -2.68 22.34 -2 22 C-1.53044799 19.77187153 -1.53044799 19.77187153 -1.3671875 17.08984375 C-1.24150391 15.60581055 -1.24150391 15.60581055 -1.11328125 14.09179688 C-0.99533203 12.53041992 -0.99533203 12.53041992 -0.875 10.9375 C-0.78863281 9.89271484 -0.70226562 8.84792969 -0.61328125 7.77148438 C-0.40041023 5.18155359 -0.19638621 2.5912245 0 0 Z " fill="#A79388" transform="translate(146,256)"/>
<path d="M0 0 C0.66 0 1.32 0 2 0 C1.90976563 0.81082031 1.81953125 1.62164062 1.7265625 2.45703125 C1.48320413 9.01729434 1.48320413 9.01729434 4.42138672 14.6953125 C8.2916506 18.24707586 12.59133686 21.1613898 17 24 C16.01 24.33 15.02 24.66 14 25 C8.80379196 22.18715164 3.59585004 18.77062683 0 14 C-1.16622084 9.10683511 -0.90541021 4.92226979 0 0 Z " fill="#534949" transform="translate(164,148)"/>
<path d="M0 0 C6.93352867 5.01661192 13.46202516 10.48630789 20 16 C19.01 16.33 18.02 16.66 17 17 C17 16.34 17 15.68 17 15 C16.401875 14.855625 15.80375 14.71125 15.1875 14.5625 C10.22437137 13.28626692 10.22437137 13.28626692 8.1875 10.6875 C6.07748473 7.82517736 6.07748473 7.82517736 2.8125 5.875 C0 4 0 4 -1 1 C-0.67 0.67 -0.34 0.34 0 0 Z " fill="#B5A89D" transform="translate(146,159)"/>
<path d="M0 0 C1.23402862 4.77092956 1.11265112 9.42469446 1.0625 14.3125 C1.05798828 15.14845703 1.05347656 15.98441406 1.04882812 16.84570312 C1.03710548 18.89716649 1.01917203 20.94859273 1 23 C0.34 22.67 -0.32 22.34 -1 22 C-1 16.72 -1 11.44 -1 6 C-2.32 6.99 -3.64 7.98 -5 9 C-7.75 9.6875 -7.75 9.6875 -10 10 C-1.81818182 0 -1.81818182 0 0 0 Z " fill="#7F8F95" transform="translate(433,283)"/>
<path d="M0 0 C0.66 0 1.32 0 2 0 C2 8.58 2 17.16 2 26 C1.01 26 0.02 26 -1 26 C-1 23.36 -1 20.72 -1 18 C-1.66 17.67 -2.32 17.34 -3 17 C-1.68 16.34 -0.36 15.68 1 15 C0.67 10.05 0.34 5.1 0 0 Z " fill="#7D9AA0" transform="translate(417,219)"/>
<path d="M0 0 C0.66 0.33 1.32 0.66 2 1 C2 1.66 2 2.32 2 3 C1.01 3 0.02 3 -1 3 C-1 3.66 -1 4.32 -1 5 C-3 6.625 -3 6.625 -5 8 C-5.66 7.34 -6.32 6.68 -7 6 C-4.69 4.02 -2.38 2.04 0 0 Z M-9 7 C-8.34 7.33 -7.68 7.66 -7 8 C-7.804375 8.763125 -8.60875 9.52625 -9.4375 10.3125 C-12.16799024 12.79430898 -12.16799024 12.79430898 -13 16 C-14.65 16 -16.3 16 -18 16 C-15.31941902 12.42589203 -12.57410797 9.68058098 -9 7 Z " fill="#6D818A" transform="translate(357,344)"/>
<path d="M0 0 C0.66 0.33 1.32 0.66 2 1 C-2.39453125 5.00390625 -2.39453125 5.00390625 -4 6 C-4.99 5.67 -5.98 5.34 -7 5 C-4.69 3.35 -2.38 1.7 0 0 Z M-9 6 C-8.34 6.33 -7.68 6.66 -7 7 C-12.29411765 13.76470588 -12.29411765 13.76470588 -16 15 C-16.99 15 -17.98 15 -19 15 C-19 14.34 -19 13.68 -19 13 C-17.06640625 11.52734375 -17.06640625 11.52734375 -14.5625 9.9375 C-11.6281857 8.16321108 -11.6281857 8.16321108 -9 6 Z " fill="#748C8F" transform="translate(400,246)"/>
<path d="M0 0 C7.875 6.75 7.875 6.75 11 10 C8 9 5 8 2 7 C1.67 10.96 1.34 14.92 1 19 C0.67 19 0.34 19 0 19 C0 12.73 0 6.46 0 0 Z " fill="#473A3C" transform="translate(336,189)"/>
<path d="M0 0 C4.54071365 1.46583335 7.76266969 4.04531733 11.3125 7.125 C12.13717773 7.82689453 12.13717773 7.82689453 12.97851562 8.54296875 C14.32396409 9.68952483 15.662679 10.84397451 17 12 C15.12109375 12.60546875 15.12109375 12.60546875 13 13 C11.0625 11.3125 11.0625 11.3125 9 9 C6.61440318 7.03188263 4.217851 5.15308448 1.6875 3.375 C1.130625 2.92125 0.57375 2.4675 0 2 C0 1.34 0 0.68 0 0 Z " fill="#BEA89B" transform="translate(270,262)"/>
<path d="M0 0 C1.98 1.65 3.96 3.3 6 5 C5.67 5.66 5.34 6.32 5 7 C4.34 7 3.68 7 3 7 C2.67 9.31 2.34 11.62 2 14 C2.66 14.33 3.32 14.66 4 15 C2.68 14.67 1.36 14.34 0 14 C0 9.38 0 4.76 0 0 Z " fill="#CFC3B4" transform="translate(102,218)"/>
<path d="M0 0 C1.32 0.66 2.64 1.32 4 2 C1.36 4.64 -1.28 7.28 -4 10 C-5.32 8.68 -6.64 7.36 -8 6 C-5 4 -5 4 -2 4 C-1.34 2.68 -0.68 1.36 0 0 Z " fill="#57707B" transform="translate(265,136)"/>
<path d="M0 0 C0.33 0 0.66 0 1 0 C1 6.6 1 13.2 1 20 C3.475 20.99 3.475 20.99 6 22 C6.33 22.99 6.66 23.98 7 25 C7.99 25.33 8.98 25.66 10 26 C9.67 26.66 9.34 27.32 9 28 C4.97395229 26.37839745 2.45189733 24.61332238 0 21 C-1.22575123 14.12006755 -0.54481927 6.92991481 0 0 Z " fill="#615451" transform="translate(102,254)"/>
<path d="M0 0 C2.31 1.65 4.62 3.3 7 5 C4 8 4 8 2 9 C1.34 10.32 0.68 11.64 0 13 C0 8.71 0 4.42 0 0 Z " fill="#CCBFB6" transform="translate(160,265)"/>
<path d="M0 0 C1.32 0.33 2.64 0.66 4 1 C4 1.66 4 2.32 4 3 C4.66 3 5.32 3 6 3 C6 3.66 6 4.32 6 5 C6.9075 5.268125 7.815 5.53625 8.75 5.8125 C11.72991834 6.90131632 13.68590359 7.86391101 16 10 C16 10.66 16 11.32 16 12 C15.01 12.33 14.02 12.66 13 13 C10.8303243 11.02404535 8.66418031 9.04445723 6.5 7.0625 C5.87996094 6.49853516 5.25992188 5.93457031 4.62109375 5.35351562 C3.06178382 3.92272025 1.52862521 2.46353265 0 1 C0 0.67 0 0.34 0 0 Z " fill="#564B4A" transform="translate(247,322)"/>
<path d="M0 0 C0.99 0.33 1.98 0.66 3 1 C2.278125 1.37125 1.55625 1.7425 0.8125 2.125 C-2.1919557 3.92106796 -2.1919557 3.92106796 -4.4375 7.0625 C-7.2188974 10.25093117 -8.94551064 11.0570955 -13 12 C-9.14475224 7.09974003 -5.3637611 3.23849727 0 0 Z " fill="#161B1A" transform="translate(219,178)"/>
<path d="M0 0 C2.31 0.33 4.62 0.66 7 1 C5.68 2.65 4.36 4.3 3 6 C1.125 5.6875 1.125 5.6875 -1 5 C-1.66 4.01 -2.32 3.02 -3 2 C-2.01 2 -1.02 2 0 2 C0 1.34 0 0.68 0 0 Z " fill="#A2B7BD" transform="translate(260,394)"/>
<path d="M0 0 C1.32 0.33 2.64 0.66 4 1 C4 1.66 4 2.32 4 3 C5.32 3.33 6.64 3.66 8 4 C8 4.99 8 5.98 8 7 C10.31 7.66 12.62 8.32 15 9 C14.01 9.99 13.02 10.98 12 12 C9.99698881 10.19073245 7.99751914 8.377813 6 6.5625 C5.42765625 6.04623047 4.8553125 5.52996094 4.265625 4.99804688 C2.82480421 3.6858708 1.41014216 2.34509096 0 1 C0 0.67 0 0.34 0 0 Z " fill="#54494B" transform="translate(133,228)"/>
<path d="M0 0 C0.99 0.33 1.98 0.66 3 1 C3 5.29 3 9.58 3 14 C3.66 14.33 4.32 14.66 5 15 C4.67 15.66 4.34 16.32 4 17 C2.68 16.34 1.36 15.68 0 15 C0 10.05 0 5.1 0 0 Z " fill="#434345" transform="translate(103,193)"/>
<path d="M0 0 C0.66 0.33 1.32 0.66 2 1 C1.25 3.4375 1.25 3.4375 0 6 C-2.125 6.8125 -2.125 6.8125 -4 7 C-4 4 -4 4 -2 1.8125 C-1.34 1.214375 -0.68 0.61625 0 0 Z M-5 6 C-5.6875 7.9375 -5.6875 7.9375 -7 10 C-9.625 10.75 -9.625 10.75 -12 11 C-7.25 6 -7.25 6 -5 6 Z " fill="#697E88" transform="translate(280,405)"/>
<path d="M0 0 C0.99 0.33 1.98 0.66 3 1 C3 1.66 3 2.32 3 3 C1.68 3 0.36 3 -1 3 C-1.268125 3.598125 -1.53625 4.19625 -1.8125 4.8125 C-2.98493467 6.97224808 -4.19369282 8.35790256 -6 10 C-6.66 9.67 -7.32 9.34 -8 9 C-8 8.01 -8 7.02 -8 6 C-6.35546875 4.359375 -6.35546875 4.359375 -4.1875 2.75 C-3.47980469 2.20859375 -2.77210938 1.6671875 -2.04296875 1.109375 C-1.36878906 0.74328125 -0.69460938 0.3771875 0 0 Z " fill="#C4AFA2" transform="translate(260,254)"/>
<path d="M0 0 C2.875 -0.1875 2.875 -0.1875 6 0 C6.66 0.99 7.32 1.98 8 3 C4.93882432 5.62386487 4.26826873 6 0 6 C0 4.02 0 2.04 0 0 Z " fill="#768385" transform="translate(89,288)"/>
<path d="M0 0 C0.66 0.33 1.32 0.66 2 1 C1.34 1.61875 0.68 2.2375 0 2.875 C-2.2284549 4.75637427 -2.2284549 4.75637427 -2 7 C-8.625 10 -8.625 10 -12 10 C-8.04 6.7 -4.08 3.4 0 0 Z " fill="#6B7F8A" transform="translate(337,360)"/>
<path d="M0 0 C0.33 0 0.66 0 1 0 C1 2.31 1 4.62 1 7 C3.31 7 5.62 7 8 7 C3.375 11.875 3.375 11.875 0 13 C0 8.71 0 4.42 0 0 Z " fill="#8EA6AF" transform="translate(318,318)"/>
<path d="M0 0 C-1.4258086 3.45195767 -3.09746334 5.1014256 -6.125 7.25 C-7.21167969 8.03117187 -7.21167969 8.03117187 -8.3203125 8.828125 C-8.87460937 9.21484375 -9.42890625 9.6015625 -10 10 C-10.66 9.34 -11.32 8.68 -12 8 C-10.37982158 6.66081194 -8.75370657 5.3288031 -7.125 4 C-6.22007812 3.2575 -5.31515625 2.515 -4.3828125 1.75 C-2 0 -2 0 0 0 Z " fill="#778B93" transform="translate(423,293)"/>
<path d="M0 0 C0.33 0.99 0.66 1.98 1 3 C-0.375 4.5 -0.375 4.5 -2 6 C-2.66 6 -3.32 6 -4 6 C-4 6.66 -4 7.32 -4 8 C-5.98 8.33 -7.96 8.66 -10 9 C-6.83047153 5.73991357 -3.60062011 2.77762123 0 0 Z " fill="#6E5041" transform="translate(167,203)"/>
<path d="M0 0 C4.24719772 0.15168563 6.98562093 3.32816401 10 6 C9.34 6.66 8.68 7.32 8 8 C7.0925 7.38125 6.185 6.7625 5.25 6.125 C2.85051183 4.55610389 0.59038388 3.19556179 -2 2 C-1.34 1.34 -0.68 0.68 0 0 Z " fill="#BBA99F" transform="translate(372,160)"/>
<path d="M0 0 C0.33 1.32 0.66 2.64 1 4 C-4.29230769 8.92307692 -4.29230769 8.92307692 -7.875 9.3125 C-8.926875 9.1578125 -8.926875 9.1578125 -10 9 C-6.83047153 5.73991357 -3.60062011 2.77762123 0 0 Z " fill="#162828" transform="translate(238,64)"/>
<path d="M0 0 C4.29 0 8.58 0 13 0 C9 4 9 4 6.640625 4.390625 C5.45726562 4.32101562 5.45726562 4.32101562 4.25 4.25 C3.45078125 4.21390625 2.6515625 4.1778125 1.828125 4.140625 C1.22484375 4.09421875 0.6215625 4.0478125 0 4 C0 2.68 0 1.36 0 0 Z " fill="#697E88" transform="translate(255,416)"/>
<path d="M0 0 C0.33 0.99 0.66 1.98 1 3 C-0.12073862 3.83905565 -1.24674547 4.67107831 -2.375 5.5 C-3.31472656 6.19609375 -3.31472656 6.19609375 -4.2734375 6.90625 C-6 8 -6 8 -8 8 C-8.66 9.32 -9.32 10.64 -10 12 C-10.99 11.67 -11.98 11.34 -13 11 C-12.01 10.67 -11.02 10.34 -10 10 C-9.67 9.01 -9.34 8.02 -9 7 C-7.1875 5.4296875 -7.1875 5.4296875 -5 3.875 C-2.38851475 2.06989989 -2.38851475 2.06989989 0 0 Z " fill="#172023" transform="translate(289,311)"/>
<path d="M0 0 C0 6.27 0 12.54 0 19 C-0.33 19 -0.66 19 -1 19 C-1.03738281 18.02417969 -1.07476562 17.04835938 -1.11328125 16.04296875 C-1.17902344 14.77066406 -1.24476563 13.49835938 -1.3125 12.1875 C-1.37050781 10.92292969 -1.42851562 9.65835937 -1.48828125 8.35546875 C-1.7113494 5.03396307 -1.7113494 5.03396307 -3.54296875 3.05078125 C-4.02378906 2.70402344 -4.50460937 2.35726562 -5 2 C-2 0 -2 0 0 0 Z " fill="#36535E" transform="translate(419,253)"/>
<path d="M0 0 C1.32 0.33 2.64 0.66 4 1 C2.02 3.31 0.04 5.62 -2 8 C-2.99 7.67 -3.98 7.34 -5 7 C-5 6.01 -5 5.02 -5 4 C-2.75 1.75 -2.75 1.75 0 0 Z " fill="#C1A99D" transform="translate(342,184)"/>
<path d="M0 0 C0 3.96 0 7.92 0 12 C-0.33 12 -0.66 12 -1 12 C-1.33 10.02 -1.66 8.04 -2 6 C-3.98 6.99 -3.98 6.99 -6 8 C-6 5 -6 5 -3.5625 2.3125 C-1 0 -1 0 0 0 Z " fill="#A5B0B4" transform="translate(243,236)"/>
<path d="M0 0 C1.32 0 2.64 0 4 0 C4 0.66 4 1.32 4 2 C3.01 2.495 3.01 2.495 2 3 C2.02320312 3.75925781 2.04640625 4.51851563 2.0703125 5.30078125 C2.08835937 6.29464844 2.10640625 7.28851563 2.125 8.3125 C2.14820312 9.29863281 2.17140625 10.28476562 2.1953125 11.30078125 C2 14 2 14 0 17 C0 11.39 0 5.78 0 0 Z " fill="#9BA4A1" transform="translate(89,294)"/>
<path d="M0 0 C1.98 0.99 1.98 0.99 4 2 C3.67 5.3 3.34 8.6 3 12 C2.34 12 1.68 12 1 12 C0.67 8.04 0.34 4.08 0 0 Z " fill="#BEAE9E" transform="translate(143,251)"/>
<path d="M0 0 C0.99 0.495 0.99 0.495 2 1 C2 1.66 2 2.32 2 3 C5.79557881 3 7.62902617 2.49821059 11 1 C9.9024777 3.99324263 9.32317108 4.84610901 6.375 6.25 C5.59125 6.4975 4.8075 6.745 4 7 C2 5.1875 2 5.1875 0 3 C0 2.01 0 1.02 0 0 Z " fill="#58514C" transform="translate(370,233)"/>
<path d="M0 0 C0.33 0 0.66 0 1 0 C1 5.61 1 11.22 1 17 C0.01 16.01 -0.98 15.02 -2 14 C-1.85546875 10.64453125 -1.85546875 10.64453125 -1.1875 6.8125 C-0.97480469 5.54019531 -0.76210937 4.26789063 -0.54296875 2.95703125 C-0.36378906 1.98121094 -0.18460938 1.00539063 0 0 Z " fill="#675350" transform="translate(202,338)"/>
<path d="M0 0 C3 0 3 0 4.5625 1.4375 C5.036875 1.953125 5.51125 2.46875 6 3 C6.66 3.33 7.32 3.66 8 4 C8.625 6.5625 8.625 6.5625 9 9 C7.68103535 8.07161713 6.37001311 7.13194268 5.0625 6.1875 C4.33160156 5.66542969 3.60070312 5.14335937 2.84765625 4.60546875 C1 3 1 3 0 0 Z " fill="#1F2421" transform="translate(132,240)"/>
<path d="M0 0 C0.66 0.33 1.32 0.66 2 1 C2 1.66 2 2.32 2 3 C0.34928604 4.02611949 -1.31970006 5.02308143 -3 6 C-3.556875 6.556875 -4.11375 7.11375 -4.6875 7.6875 C-5.120625 8.120625 -5.55375 8.55375 -6 9 C-6.66 9 -7.32 9 -8 9 C-6.4169423 4.7257442 -3.49431596 2.73468206 0 0 Z " fill="#BEABA0" transform="translate(134,169)"/>
<path d="M0 0 C2.875 0.25 2.875 0.25 6 1 C7.1875 2.875 7.1875 2.875 8 5 C9.5412312 6.70921589 9.5412312 6.70921589 11 8 C10.67 8.66 10.34 9.32 10 10 C8.33037631 8.52417192 6.6643694 7.04425109 5 5.5625 C4.071875 4.73878906 3.14375 3.91507812 2.1875 3.06640625 C1.465625 2.38449219 0.74375 1.70257813 0 1 C0 0.67 0 0.34 0 0 Z " fill="#181C1D" transform="translate(210,116)"/>
<path d="M0 0 C-1.25942386 1.19959375 -2.53295286 2.38439443 -3.8125 3.5625 C-4.87404297 4.55443359 -4.87404297 4.55443359 -5.95703125 5.56640625 C-6.63121094 6.03949219 -7.30539063 6.51257813 -8 7 C-8.99 6.67 -9.98 6.34 -11 6 C-11 5.34 -11 4.68 -11 4 C-10.01 4 -9.02 4 -8 4 C-7.71125 3.360625 -7.4225 2.72125 -7.125 2.0625 C-5.18025038 -1.5028743 -3.54277596 -1.06283279 0 0 Z " fill="#BDC4BE" transform="translate(199,97)"/>
<path d="M0 0 C0.66 0.33 1.32 0.66 2 1 C0.7820245 4.65392651 -0.14396506 4.95831699 -3.4375 6.75 C-4.64212891 7.42289062 -4.64212891 7.42289062 -5.87109375 8.109375 C-6.57363281 8.40328125 -7.27617187 8.6971875 -8 9 C-8.66 8.67 -9.32 8.34 -10 8 C-6.7 5.36 -3.4 2.72 0 0 Z " fill="#72858D" transform="translate(403,307)"/>
<path d="M0 0 C0 0.99 0 1.98 0 3 C-0.66 3 -1.32 3 -2 3 C-2.33 8.28 -2.66 13.56 -3 19 C-3.33 19 -3.66 19 -4 19 C-4 13.06 -4 7.12 -4 1 C-2 0 -2 0 0 0 Z " fill="#2A3030" transform="translate(223,285)"/>
<path d="M0 0 C4.37859255 0.50522222 6.81651224 3.17827222 10 6 C9.67 6.66 9.34 7.32 9 8 C8.34 8 7.68 8 7 8 C7 7.34 7 6.68 7 6 C6.34 6 5.68 6 5 6 C5 5.34 5 4.68 5 4 C4.01 4 3.02 4 2 4 C1.34 2.68 0.68 1.36 0 0 Z " fill="#BAA493" transform="translate(214,122)"/>
<path d="M0 0 C0.33 0 0.66 0 1 0 C1.04898438 0.90363281 1.09796875 1.80726563 1.1484375 2.73828125 C1.22320312 3.91777344 1.29796875 5.09726562 1.375 6.3125 C1.44460937 7.48425781 1.51421875 8.65601563 1.5859375 9.86328125 C1.78613747 13.15699887 1.78613747 13.15699887 4 16 C1.525 15.01 1.525 15.01 -1 14 C-0.67 9.38 -0.34 4.76 0 0 Z " fill="#BBA593" transform="translate(160,284)"/>
<path d="M0 0 C3.43198603 1.23932829 6.30325632 2.50301511 9 5 C9 5.99 9 6.98 9 8 C6.08719163 6.69425831 4.19705507 5.2925792 2 3 C1.01 2.34 0.02 1.68 -1 1 C-0.67 0.67 -0.34 0.34 0 0 Z " fill="#BBAC9A" transform="translate(389,173)"/>
<path d="M0 0 C0.5534764 2.07553648 1 3.84365964 1 6 C-0.32 6.33 -1.64 6.66 -3 7 C-3.66 6.01 -4.32 5.02 -5 4 C-3.35 2.68 -1.7 1.36 0 0 Z " fill="#CEB3AB" transform="translate(227,280)"/>
<path d="M0 0 C0.99 0.33 1.98 0.66 3 1 C1.71372289 2.17260611 0.42080217 3.3379283 -0.875 4.5 C-1.59429687 5.1496875 -2.31359375 5.799375 -3.0546875 6.46875 C-5 8 -5 8 -7 8 C-7 6 -7 6 -5.57421875 4.45703125 C-4.95160156 3.91433594 -4.32898438 3.37164062 -3.6875 2.8125 C-3.07261719 2.26207031 -2.45773437 1.71164063 -1.82421875 1.14453125 C-1.22222656 0.76683594 -0.62023437 0.38914063 0 0 Z " fill="#514B41" transform="translate(399,218)"/>
<path d="M0 0 C0 3 0 3 -2.5 5.6875 C-3.325 6.450625 -4.15 7.21375 -5 8 C-5.99 7.67 -6.98 7.34 -8 7 C-5.42215154 4.35247996 -3.08351902 2.05567935 0 0 Z " fill="#6E4D3B" transform="translate(393,207)"/>
<path d="M0 0 C0.99 0.33 1.98 0.66 3 1 C3 1.99 3 2.98 3 4 C0.36 4.66 -2.28 5.32 -5 6 C-3.35 4.02 -1.7 2.04 0 0 Z " fill="#182329" transform="translate(153,232)"/>
<path d="M0 0 C0.66 0.33 1.32 0.66 2 1 C0.68 2.32 -0.64 3.64 -2 5 C-2.66 4.67 -3.32 4.34 -4 4 C-2.68 2.68 -1.36 1.36 0 0 Z M-6 5 C-5.34 5.33 -4.68 5.66 -4 6 C-4.33 6.99 -4.66 7.98 -5 9 C-6.65 9 -8.3 9 -10 9 C-8.68 7.68 -7.36 6.36 -6 5 Z " fill="#E1EAEC" transform="translate(301,218)"/>
<path d="M0 0 C-2.64 1.98 -5.28 3.96 -8 6 C-8.66 5.67 -9.32 5.34 -10 5 C-9.01 4.34 -8.02 3.68 -7 3 C-6.67 2.01 -6.34 1.02 -6 0 C-4 -1 -4 -1 0 0 Z " fill="#564F4D" transform="translate(169,220)"/>
<path d="M0 0 C6.57142857 4 6.57142857 4 8 8 C7.01 7.67 6.02 7.34 5 7 C5 6.34 5 5.68 5 5 C3.02 4.34 1.04 3.68 -1 3 C-0.67 2.01 -0.34 1.02 0 0 Z " fill="#0A1313" transform="translate(343,213)"/>
<path d="M0 0 C-1.50223584 4.20626034 -4.28550034 5.73900021 -8 8 C-8.66 7.67 -9.32 7.34 -10 7 C-8.71372289 5.82739389 -7.42080217 4.6620717 -6.125 3.5 C-5.04605469 2.52546875 -5.04605469 2.52546875 -3.9453125 1.53125 C-2 0 -2 0 0 0 Z " fill="#E3EAED" transform="translate(300,126)"/>
<path d="M0 0 C0.33 0.66 0.66 1.32 1 2 C-1.64 4.31 -4.28 6.62 -7 9 C-7.66 8.34 -8.32 7.68 -9 7 C-6.03 4.69 -3.06 2.38 0 0 Z " fill="#6C818B" transform="translate(311,381)"/>
<path d="M0 0 C1.18224668 3.54674003 0.89329634 5.97522995 0.5625 9.6875 C0.40974609 11.45673828 0.40974609 11.45673828 0.25390625 13.26171875 C0.12822266 14.61716797 0.12822266 14.61716797 0 16 C-0.33 16 -0.66 16 -1 16 C-1 12.04 -1 8.08 -1 4 C-1.66 3.67 -2.32 3.34 -3 3 C-2.01 2.01 -1.02 1.02 0 0 Z " fill="#A6AFB7" transform="translate(357,237)"/>
<path d="M0 0 C2.94956528 1.36944102 5.52468811 2.87830409 8 5 C8 5.66 8 6.32 8 7 C5.33333333 5.66666667 2.66666667 4.33333333 0 3 C0 2.01 0 1.02 0 0 Z " fill="#BDAEA0" transform="translate(176,184)"/>
<path d="M0 0 C0.66 0.33 1.32 0.66 2 1 C-0.97 3.64 -3.94 6.28 -7 9 C-7.33 8.01 -7.66 7.02 -8 6 C-5.36 4.02 -2.72 2.04 0 0 Z " fill="#524946" transform="translate(236,162)"/>
<path d="M0 0 C0.66 0.33 1.32 0.66 2 1 C0.74057614 2.19959375 -0.53295286 3.38439443 -1.8125 4.5625 C-2.87404297 5.55443359 -2.87404297 5.55443359 -3.95703125 6.56640625 C-4.63121094 7.03949219 -5.30539063 7.51257813 -6 8 C-6.99 7.67 -7.98 7.34 -9 7 C-6.03 4.69 -3.06 2.38 0 0 Z " fill="#6A4C38" transform="translate(222,157)"/>
<path d="M0 0 C-0.6875 1.9375 -0.6875 1.9375 -2 4 C-4.5625 4.625 -4.5625 4.625 -7 5 C-7.33 5.66 -7.66 6.32 -8 7 C-8 6.01 -8 5.02 -8 4 C-2.74285714 0 -2.74285714 0 0 0 Z " fill="#1A1D1F" transform="translate(300,305)"/>
<path d="M0 0 C0.66 0.66 1.32 1.32 2 2 C1.67 2.99 1.34 3.98 1 5 C-1.31 5.33 -3.62 5.66 -6 6 C-6 5.34 -6 4.68 -6 4 C-4.03852126 2.61061923 -2.03833424 1.2739589 0 0 Z " fill="#7A949B" transform="translate(387,255)"/>
<path d="M0 0 C0 1.66666667 0 3.33333333 0 5 C-2.31 5.33 -4.62 5.66 -7 6 C-2.25 1.125 -2.25 1.125 0 0 Z " fill="#779295" transform="translate(413,237)"/>
<path d="M0 0 C2.4750171 1.11431765 4.67883419 2.58150978 7 4 C6.67 4.66 6.34 5.32 6 6 C5.38125 5.649375 4.7625 5.29875 4.125 4.9375 C3.073125 4.4734375 3.073125 4.4734375 2 4 C1.01 4.495 1.01 4.495 0 5 C-0.66 3.68 -1.32 2.36 -2 1 C-1.34 0.67 -0.68 0.34 0 0 Z " fill="#4C4036" transform="translate(106,191)"/>
<path d="M0 0 C0.33 0.66 0.66 1.32 1 2 C-0.57894208 4.36841312 -1.9754262 6.06745228 -4 8 C-4.99 7.67 -5.98 7.34 -7 7 C-4.66666667 4.66666667 -2.33333333 2.33333333 0 0 Z " fill="#182527" transform="translate(148,139)"/>
<path d="M0 0 C0.99 0.33 1.98 0.66 3 1 C-0.465 3.97 -0.465 3.97 -4 7 C-4.66 6.67 -5.32 6.34 -6 6 C-4 4 -2 2 0 0 Z " fill="#8FA9B0" transform="translate(340,311)"/>
<path d="M0 0 C0.66 0 1.32 0 2 0 C2 2.64 2 5.28 2 8 C1.67 7.01 1.34 6.02 1 5 C0.01 4.67 -0.98 4.34 -2 4 C-1.34 2.68 -0.68 1.36 0 0 Z " fill="#67564D" transform="translate(299,285)"/>
<path d="M0 0 C2.5 1.375 2.5 1.375 5 3 C5 3.66 5 4.32 5 5 C5.99 5.33 6.98 5.66 8 6 C7.67 6.66 7.34 7.32 7 8 C4.36 6.02 1.72 4.04 -1 2 C-0.67 1.34 -0.34 0.68 0 0 Z " fill="#564C4C" transform="translate(104,274)"/>
<path d="M0 0 C1.32 0.33 2.64 0.66 4 1 C4 1.99 4 2.98 4 4 C5.32 4.33 6.64 4.66 8 5 C7.01 5.66 6.02 6.32 5 7 C3.29115995 5.37660195 1.62553283 3.70680947 0 2 C0 1.34 0 0.68 0 0 Z " fill="#617A84" transform="translate(255,232)"/>
<path d="M0 0 C-1 3 -1 3 -2.84765625 4.16796875 C-3.57855469 4.50441406 -4.30945313 4.84085938 -5.0625 5.1875 C-5.79597656 5.53167969 -6.52945313 5.87585938 -7.28515625 6.23046875 C-8.13400391 6.61138672 -8.13400391 6.61138672 -9 7 C-7.21625256 3.00308443 -4.72261474 0 0 0 Z " fill="#101A20" transform="translate(172,219)"/>
<path d="M0 0 C-0.66 1.32 -1.32 2.64 -2 4 C-2.99 4 -3.98 4 -5 4 C-5 4.66 -5 5.32 -5 6 C-5.99 6.33 -6.98 6.66 -8 7 C-6.47663111 3.31852519 -4.31953005 0 0 0 Z " fill="#141A1D" transform="translate(414,211)"/>
<path d="M0 0 C0.33 0.99 0.66 1.98 1 3 C-0.1875 4.5 -0.1875 4.5 -2 6 C-4.6875 6.1875 -4.6875 6.1875 -7 6 C-4.74259377 3.66475218 -2.7194239 1.81294927 0 0 Z " fill="#6B4C3A" transform="translate(179,194)"/>
<path d="M0 0 C3.36591866 1.44253657 5.51047079 3.33264727 8 6 C5 5 2 4 -1 3 C-0.67 2.01 -0.34 1.02 0 0 Z " fill="#573A31" transform="translate(339,193)"/>
<path d="M0 0 C0.99 0 1.98 0 3 0 C1.5361389 4.39158329 -0.97831338 4.87947433 -5 7 C-4.67 6.01 -4.34 5.02 -4 4 C-3.34 4 -2.68 4 -2 4 C-2 3.34 -2 2.68 -2 2 C-1.34 2 -0.68 2 0 2 C0 1.34 0 0.68 0 0 Z " fill="#1B2222" transform="translate(111,184)"/>
<path d="M0 0 C2.9719385 1.12451727 5.33440687 2.22293791 8 4 C8 4.66 8 5.32 8 6 C6.02 5.34 4.04 4.68 2 4 C2 3.34 2 2.68 2 2 C1.01 1.67 0.02 1.34 -1 1 C-0.67 0.67 -0.34 0.34 0 0 Z " fill="#C1AFA1" transform="translate(233,137)"/>
<path d="M0 0 C0.66 0 1.32 0 2 0 C3.7143618 1.95927063 5.38405168 3.95880212 7 6 C5.68 6 4.36 6 3 6 C3 5.34 3 4.68 3 4 C2.34 4 1.68 4 1 4 C0.67 2.68 0.34 1.36 0 0 Z " fill="#627882" transform="translate(231,397)"/>
<path d="M0 0 C3.72114571 2.31537955 6.61229661 4.28579473 9 8 C5.56247993 6.4722133 2.81046312 4.49818944 0 2 C0 1.34 0 0.68 0 0 Z " fill="#171B1F" transform="translate(179,336)"/>
<path d="M0 0 C0.66 0.66 1.32 1.32 2 2 C0.02 3.32 -1.96 4.64 -4 6 C-4.66 5.67 -5.32 5.34 -6 5 C-5.67 4.34 -5.34 3.68 -5 3 C-4.34 3 -3.68 3 -3 3 C-3 2.34 -3 1.68 -3 1 C-2.01 0.67 -1.02 0.34 0 0 Z " fill="#7E9699" transform="translate(353,286)"/>
<path d="M0 0 C1.33855056 0.78281305 2.67073644 1.57651877 4 2.375 C5.11375 3.03628906 5.11375 3.03628906 6.25 3.7109375 C6.8275 4.13632812 7.405 4.56171875 8 5 C8 5.66 8 6.32 8 7 C4.66272214 5.82744291 2.22562513 4.81131596 0 2 C0 1.34 0 0.68 0 0 Z " fill="#171415" transform="translate(172,272)"/>
<path d="M0 0 C0.99 0 1.98 0 3 0 C1.75453595 3.73639216 0.36595047 4.18756513 -3 6 C-3.66 5.34 -4.32 4.68 -5 4 C-4.0409375 3.8453125 -4.0409375 3.8453125 -3.0625 3.6875 C-2.381875 3.460625 -1.70125 3.23375 -1 3 C-0.67 2.01 -0.34 1.02 0 0 Z " fill="#1D201F" transform="translate(234,271)"/>
<path d="M0 0 C2.5 1.3125 2.5 1.3125 5 3 C5 3.99 5 4.98 5 6 C4.34 6 3.68 6 3 6 C2.67 6.66 2.34 7.32 2 8 C2 6.35 2 4.7 2 3 C1.34 3 0.68 3 0 3 C0 2.01 0 1.02 0 0 Z " fill="#4D3E3B" transform="translate(164,145)"/>
<path d="M0 0 C2.31 1.65 4.62 3.3 7 5 C6.34 5.66 5.68 6.32 5 7 C2.5 5.1875 2.5 5.1875 0 3 C0 2.01 0 1.02 0 0 Z " fill="#16212E" transform="translate(325,100)"/>
<path d="M0 0 C2.52588702 2.36292656 3.88820837 3.66462511 5 7 C3.35 6.67 1.7 6.34 0 6 C0 4.02 0 2.04 0 0 Z " fill="#959DA1" transform="translate(89,282)"/>
<path d="M0 0 C0 1.98 0 3.96 0 6 C-2.97 5.505 -2.97 5.505 -6 5 C-1.125 0 -1.125 0 0 0 Z " fill="#566B73" transform="translate(300,190)"/>
<path d="M0 0 C1.9375 0.8125 1.9375 0.8125 4 2 C4.33 2.99 4.66 3.98 5 5 C3.35 4.67 1.7 4.34 0 4 C0 2.68 0 1.36 0 0 Z " fill="#152029" transform="translate(428,187)"/>
<path d="M0 0 C1.32 0.33 2.64 0.66 4 1 C4 1.66 4 2.32 4 3 C4.99 3.33 5.98 3.66 7 4 C6.34 4.66 5.68 5.32 5 6 C3.2925002 4.71937515 1.62626404 3.38232443 0 2 C0 1.34 0 0.68 0 0 Z " fill="#191A1F" transform="translate(377,161)"/>
<path d="M0 0 C1.32 0.66 2.64 1.32 4 2 C2.35 3.32 0.7 4.64 -1 6 C-1.042721 4.33388095 -1.04063832 2.66617115 -1 1 C-0.67 0.67 -0.34 0.34 0 0 Z " fill="#4B6672" transform="translate(265,136)"/>
<path d="M0 0 C2.64 1.65 5.28 3.3 8 5 C7.34 5.66 6.68 6.32 6 7 C3.95880212 5.38405168 1.95927063 3.7143618 0 2 C0 1.34 0 0.68 0 0 Z " fill="#B7A595" transform="translate(226,131)"/>
<path d="M0 0 C3.875 1.75 3.875 1.75 5 4 C4.2575 3.79375 3.515 3.5875 2.75 3.375 C-0.32330841 2.95591249 -1.42786866 3.38050989 -4 5 C-2.68 3.35 -1.36 1.7 0 0 Z " fill="#C3B2AB" transform="translate(203,112)"/>
<path d="M0 0 C1.32 0.66 2.64 1.32 4 2 C2.71034824 3.37562854 1.37310707 4.70766393 0 6 C-0.66 6 -1.32 6 -2 6 C-1.34 4.02 -0.68 2.04 0 0 Z " fill="#BEC4C0" transform="translate(213,80)"/>
</svg>
